<svg width="130" height="58" viewBox="0 0 130 58" fill="none" xmlns="http://www.w3.org/2000/svg">
<g clip-path="url(#clip0_4752_8353)">
<path d="M59.0396 47.3038L64.2189 27.5541H67.5006L71.3806 39.0125C71.3866 39.0264 79.8693 27.5541 79.8693 27.5541H82.9299L82.1401 47.3038H78.6846L79.1763 33.4818L70.5888 44.7329C69.9984 43.4672 69.4535 42.5391 68.9559 41.2359C68.2588 39.4094 66.0868 33.6634 66.0868 33.6634L62.3331 47.3038C62.3114 47.3847 62.2384 47.3038 62.1554 47.3038H59.0396Z" fill="#082954"/>
<path d="M19.5483 47.3035H16.0928L14.7106 42.3118H6.37788L3.45551 47.3035H0L10.5028 27.5538H14.7126C14.7126 27.5538 15.2339 29.4869 15.3444 29.8857C16.701 34.8222 19.5898 46.9639 19.5483 47.3035ZM14.0195 39.4052L12.1436 31.5108L8.09576 39.4052H14.0195Z" fill="#082954"/>
<path d="M48.2786 27.5541L48.1798 30.5219C48.1798 30.5219 39.3811 30.2494 38.5103 31.2189C37.5389 32.0048 37.3414 33.9083 38.3208 34.7494C39.5194 35.7782 43.4744 36.2718 45.2812 37.4645C48.2154 39.4015 46.9615 44.4762 44.365 46.1585C43.8279 46.5061 42.3371 47.3038 41.3636 47.3038H31.9844L32.399 44.3636C32.7327 44.0813 39.8669 44.4979 41.1484 44.3261C43.1743 44.0517 44.2248 41.2083 42.8366 39.909C41.4485 38.6097 36.4983 38.6314 34.8594 36.4337C33.6173 34.7692 34.0518 31.2288 35.4596 29.7498C36.4588 28.6993 37.9219 27.5541 40.7712 27.5541H48.2746H48.2786Z" fill="#082954"/>
<path d="M102.115 27.5541L102.016 30.5179C102.016 30.5179 93.2176 30.2454 92.3468 31.2149C91.3753 32.0008 91.1778 33.9043 92.1572 34.7455C93.3558 35.7742 97.3109 36.2679 99.1176 37.4605C102.052 39.3976 100.798 44.4722 98.2014 46.1546C97.6643 46.5021 96.1735 47.3038 95.2 47.3038H85.8208L86.2355 44.3597C86.19 44.3597 93.7033 44.494 94.9848 44.3222C97.0107 44.0477 98.0612 41.2043 96.6731 39.905C95.2514 38.5742 90.3347 38.6275 88.6958 36.4298C87.4538 34.7652 87.8882 31.2248 89.2961 29.7459C90.2952 28.6954 91.7583 27.5541 94.6077 27.5541H102.111H102.115Z" fill="#082954"/>
<path d="M27.1171 47.3038H23.6616L26.8209 27.5541H30.2764L27.1171 47.3038Z" fill="#082954"/>
<path d="M54.4785 47.3215H51.0229L54.1823 27.5718H57.6378L54.4785 47.3215Z" fill="#082954"/>
<path d="M90.9482 55.715V51.8254H91.4575L91.4723 52.4748C91.5707 52.3125 91.6912 52.1821 91.8339 52.0837C91.9766 51.9803 92.1341 51.9041 92.3063 51.8549C92.4785 51.8057 92.6507 51.7811 92.8229 51.7811C93.1969 51.7811 93.4921 51.8598 93.7086 52.0172C93.9251 52.1747 94.0801 52.3887 94.1736 52.6594C94.2671 52.9251 94.3138 53.2277 94.3138 53.5672V55.715H93.7898V53.7369C93.7898 53.545 93.7775 53.3605 93.7529 53.1834C93.7283 53.0013 93.6791 52.839 93.6053 52.6963C93.5364 52.5536 93.4331 52.4429 93.2953 52.3641C93.1624 52.2805 92.9828 52.2387 92.7565 52.2387C92.481 52.2387 92.2448 52.3125 92.048 52.4601C91.8561 52.6077 91.7109 52.8045 91.6125 53.0505C91.519 53.2966 91.4723 53.5696 91.4723 53.8698V55.715H90.9482Z" fill="#494949"/>
<path d="M87.894 55.7592C87.4856 55.7592 87.1436 55.6756 86.8681 55.5083C86.5925 55.3361 86.3859 55.0999 86.2481 54.7998C86.1153 54.4996 86.0488 54.1576 86.0488 53.7738C86.0488 53.3851 86.1177 53.0432 86.2555 52.7479C86.3933 52.4478 86.5999 52.2116 86.8755 52.0394C87.151 51.8672 87.493 51.7811 87.9014 51.7811C88.3098 51.7811 88.6493 51.8672 88.9199 52.0394C89.1954 52.2116 89.3996 52.4478 89.5325 52.7479C89.6703 53.0432 89.7392 53.3851 89.7392 53.7738C89.7392 54.1576 89.6703 54.4996 89.5325 54.7998C89.3947 55.0999 89.1881 55.3361 88.9125 55.5083C88.6419 55.6756 88.3024 55.7592 87.894 55.7592ZM87.894 55.3016C88.1991 55.3016 88.45 55.2352 88.6468 55.1024C88.8436 54.9646 88.9888 54.7801 89.0823 54.5488C89.1758 54.3176 89.2225 54.0592 89.2225 53.7738C89.2225 53.4885 89.1758 53.2301 89.0823 52.9989C88.9888 52.7676 88.8436 52.5831 88.6468 52.4453C88.45 52.3076 88.1991 52.2387 87.894 52.2387C87.5889 52.2387 87.338 52.3076 87.1412 52.4453C86.9443 52.5831 86.7992 52.7676 86.7057 52.9989C86.6171 53.2301 86.5729 53.4885 86.5729 53.7738C86.5729 54.0592 86.6171 54.3176 86.7057 54.5488C86.7992 54.7801 86.9443 54.9646 87.1412 55.1024C87.338 55.2352 87.5889 55.3016 87.894 55.3016Z" fill="#494949"/>
<path d="M84.3134 55.7149V51.8253H84.8374V55.7149H84.3134ZM84.5717 51.198C84.4586 51.198 84.3675 51.1635 84.2986 51.0947C84.2298 51.0258 84.1953 50.9347 84.1953 50.8216C84.1953 50.7084 84.2298 50.6198 84.2986 50.5559C84.3724 50.487 84.4635 50.4525 84.5717 50.4525C84.6751 50.4525 84.7636 50.487 84.8374 50.5559C84.9162 50.6248 84.9555 50.7133 84.9555 50.8216C84.9555 50.9347 84.9186 51.0258 84.8448 51.0947C84.771 51.1635 84.68 51.198 84.5717 51.198Z" fill="#494949"/>
<path d="M82.8419 55.7149C82.5565 55.7149 82.3252 55.6706 82.1481 55.582C81.9709 55.4935 81.8406 55.3582 81.7569 55.1761C81.6733 54.9891 81.6314 54.753 81.6314 54.4676V52.2829H80.9819V51.8253H81.6314V50.6665H82.1555V51.8253H83.233V52.2829H82.1555V54.4159C82.1555 54.7013 82.2096 54.9153 82.3178 55.058C82.4261 55.1958 82.6377 55.2647 82.9526 55.2647H83.2109V55.7149H82.8419Z" fill="#494949"/>
<path d="M78.0823 55.7592C77.915 55.7592 77.7502 55.7396 77.5878 55.7002C77.4255 55.6559 77.2778 55.5895 77.145 55.5009C77.0121 55.4074 76.9039 55.2893 76.8202 55.1466C76.7415 54.999 76.7021 54.8268 76.7021 54.63C76.7021 54.4086 76.7415 54.2241 76.8202 54.0764C76.9039 53.9288 77.0146 53.8107 77.1524 53.7222C77.2901 53.6336 77.4476 53.5721 77.6247 53.5377C77.8019 53.4983 77.9888 53.4786 78.1857 53.4786H79.4182C79.4182 53.2375 79.3838 53.0259 79.3149 52.8439C79.2509 52.6569 79.1427 52.5093 78.9902 52.401C78.8425 52.2928 78.6433 52.2387 78.3923 52.2387C78.2595 52.2387 78.1315 52.2534 78.0085 52.283C77.8855 52.3125 77.7748 52.3617 77.6764 52.4306C77.5829 52.4945 77.5091 52.5831 77.455 52.6963H76.894C76.9383 52.5241 77.0121 52.3789 77.1155 52.2608C77.2237 52.1427 77.3492 52.0492 77.4919 51.9803C77.6346 51.9065 77.7846 51.8549 77.9421 51.8254C78.0995 51.7958 78.2496 51.7811 78.3923 51.7811C78.9434 51.7811 79.337 51.9459 79.5732 52.2756C79.8094 52.6052 79.9275 53.0481 79.9275 53.6041V55.715H79.4773L79.4551 55.1835C79.3469 55.3312 79.2165 55.4468 79.064 55.5304C78.9163 55.6141 78.7589 55.6731 78.5916 55.7076C78.4243 55.742 78.2545 55.7592 78.0823 55.7592ZM78.1192 55.3016C78.3603 55.3016 78.5793 55.2623 78.7761 55.1835C78.9729 55.0999 79.1279 54.9769 79.2411 54.8145C79.3592 54.6521 79.4182 54.4504 79.4182 54.2093V53.9141H78.5473C78.3948 53.9141 78.2398 53.919 78.0823 53.9288C77.9249 53.9338 77.7822 53.9584 77.6543 54.0026C77.5263 54.042 77.423 54.1084 77.3443 54.2019C77.2655 54.2905 77.2262 54.4184 77.2262 54.5857C77.2262 54.753 77.268 54.8908 77.3516 54.999C77.4353 55.1024 77.546 55.1786 77.6838 55.2278C77.8215 55.277 77.9667 55.3016 78.1192 55.3016Z" fill="#494949"/>
<path d="M72.5269 55.7148V55.2572L74.9846 52.2828H72.5416V51.8252H75.6341V52.2754L73.1542 55.2646H75.6341V55.7148H72.5269Z" fill="#494949"/>
<path d="M70.7914 55.7149V51.8253H71.3155V55.7149H70.7914ZM71.0498 51.198C70.9366 51.198 70.8456 51.1635 70.7767 51.0947C70.7078 51.0258 70.6733 50.9347 70.6733 50.8216C70.6733 50.7084 70.7078 50.6198 70.7767 50.5559C70.8505 50.487 70.9415 50.4525 71.0498 50.4525C71.1531 50.4525 71.2416 50.487 71.3155 50.5559C71.3942 50.6248 71.4335 50.7133 71.4335 50.8216C71.4335 50.9347 71.3966 51.0258 71.3228 51.0947C71.249 51.1635 71.158 51.198 71.0498 51.198Z" fill="#494949"/>
<path d="M64.353 55.715V51.8254H64.8549L64.8697 52.3789C64.9582 52.2264 65.0616 52.1083 65.1797 52.0246C65.3027 51.9361 65.4331 51.8746 65.5708 51.8401C65.7086 51.8007 65.8464 51.7811 65.9841 51.7811C66.2597 51.7811 66.486 51.8475 66.6632 51.9803C66.8452 52.1132 66.9756 52.2953 67.0543 52.5265C67.1232 52.3887 67.2118 52.2633 67.32 52.1501C67.4283 52.0369 67.5612 51.9484 67.7186 51.8844C67.8761 51.8155 68.0557 51.7811 68.2574 51.7811C68.5428 51.7811 68.774 51.8426 68.9512 51.9656C69.1283 52.0837 69.2562 52.246 69.335 52.4527C69.4186 52.6594 69.4604 52.8931 69.4604 53.1539V55.715H68.9364V53.4343C68.9364 53.2916 68.929 53.1514 68.9143 53.0136C68.8995 52.8709 68.8651 52.743 68.8109 52.6298C68.7568 52.5118 68.6756 52.4183 68.5674 52.3494C68.464 52.2756 68.3214 52.2387 68.1393 52.2387C67.9622 52.2387 67.8121 52.2805 67.6891 52.3641C67.571 52.4429 67.4726 52.5511 67.3939 52.6889C67.3201 52.8217 67.2659 52.9694 67.2315 53.1317C67.202 53.2892 67.1872 53.4442 67.1872 53.5967V55.715H66.6632V53.486C66.6632 53.3531 66.6533 53.2154 66.6337 53.0727C66.6189 52.9251 66.5869 52.7873 66.5377 52.6594C66.4885 52.5314 66.4098 52.4306 66.3015 52.3568C66.1933 52.278 66.0506 52.2387 65.8734 52.2387C65.6176 52.2387 65.4158 52.31 65.2682 52.4527C65.1255 52.5905 65.0247 52.7676 64.9656 52.9841C64.9066 53.1957 64.8771 53.4122 64.8771 53.6336V55.715H64.353Z" fill="#494949"/>
<path d="M62.4701 55.7149V51.8253H62.9942V55.7149H62.4701ZM62.7285 51.198C62.6153 51.198 62.5243 51.1635 62.4554 51.0947C62.3865 51.0258 62.3521 50.9347 62.3521 50.8216C62.3521 50.7084 62.3865 50.6198 62.4554 50.5559C62.5292 50.487 62.6202 50.4525 62.7285 50.4525C62.8318 50.4525 62.9204 50.487 62.9942 50.5559C63.0729 50.6248 63.1123 50.7133 63.1123 50.8216C63.1123 50.9347 63.0754 51.0258 63.0015 51.0947C62.9277 51.1635 62.8367 51.198 62.7285 51.198Z" fill="#494949"/>
<path d="M60.9986 55.7149C60.7132 55.7149 60.4819 55.6706 60.3048 55.582C60.1277 55.4935 59.9973 55.3582 59.9136 55.1761C59.83 54.9891 59.7882 54.753 59.7882 54.4676V52.2829H59.1387V51.8253H59.7882V50.6665H60.3122V51.8253H61.3898V52.2829H60.3122V54.4159C60.3122 54.7013 60.3663 54.9153 60.4746 55.058C60.5828 55.1958 60.7944 55.2647 61.1093 55.2647H61.3676V55.7149H60.9986Z" fill="#494949"/>
<path d="M54.7539 57.1542V51.8254H55.2558L55.2779 52.4675C55.4305 52.2362 55.6224 52.064 55.8536 51.9508C56.0898 51.8377 56.353 51.7811 56.6434 51.7811C57.037 51.7811 57.3593 51.8696 57.6102 52.0468C57.8612 52.2239 58.0481 52.465 58.1711 52.7701C58.2942 53.0702 58.3557 53.4073 58.3557 53.7812C58.3557 54.165 58.2917 54.507 58.1638 54.8071C58.0408 55.1073 57.8489 55.341 57.5881 55.5083C57.3322 55.6756 57.0075 55.7592 56.6138 55.7592C56.4318 55.7592 56.2571 55.7396 56.0898 55.7002C55.9225 55.6608 55.77 55.5969 55.6322 55.5083C55.4944 55.4148 55.3763 55.2943 55.2779 55.1466V57.1542H54.7539ZM56.5917 55.3016C56.8968 55.3016 57.1379 55.2328 57.315 55.095C57.497 54.9523 57.6274 54.7653 57.7062 54.534C57.7898 54.3028 57.8316 54.0494 57.8316 53.7738C57.8316 53.4934 57.7898 53.2375 57.7062 53.0063C57.6225 52.775 57.4872 52.5905 57.3002 52.4527C57.1133 52.31 56.8672 52.2387 56.5622 52.2387C56.2817 52.2387 56.0431 52.31 55.8462 52.4527C55.6543 52.5954 55.5092 52.7848 55.4108 53.021C55.3124 53.2572 55.2632 53.5106 55.2632 53.7812C55.2632 54.0715 55.3099 54.3323 55.4034 54.5636C55.5018 54.7899 55.6494 54.9695 55.8462 55.1024C56.048 55.2352 56.2965 55.3016 56.5917 55.3016Z" fill="#494949"/>
<path d="M51.0939 55.774C50.5527 55.774 50.1 55.6583 49.7359 55.4271C49.3767 55.1958 49.1036 54.8784 48.9166 54.475C48.7346 54.0715 48.6436 53.6163 48.6436 53.1095C48.6436 52.5978 48.7346 52.1402 48.9166 51.7367C49.1036 51.3333 49.3767 51.0159 49.7359 50.7846C50.1 50.5534 50.5527 50.4377 51.0939 50.4377C51.6352 50.4377 52.0854 50.5534 52.4446 50.7846C52.8038 51.0159 53.0744 51.3333 53.2565 51.7367C53.4434 52.1402 53.5369 52.5978 53.5369 53.1095C53.5369 53.6163 53.4434 54.0715 53.2565 54.475C53.0744 54.8784 52.8038 55.1958 52.4446 55.4271C52.0854 55.6583 51.6352 55.774 51.0939 55.774ZM51.0939 55.2942C51.5269 55.2942 51.8837 55.1958 52.1641 54.999C52.4446 54.8022 52.6512 54.5389 52.7841 54.2093C52.9219 53.8747 52.9908 53.5081 52.9908 53.1095C52.9908 52.8094 52.9514 52.5265 52.8727 52.2608C52.7989 51.9951 52.6832 51.7613 52.5258 51.5596C52.3683 51.3579 52.169 51.2004 51.9279 51.0872C51.6918 50.9741 51.4138 50.9175 51.0939 50.9175C50.6659 50.9175 50.3091 51.0184 50.0237 51.2201C49.7433 51.4169 49.5317 51.6826 49.389 52.0172C49.2512 52.3469 49.1823 52.711 49.1823 53.1095C49.1823 53.5032 49.2512 53.8673 49.389 54.2019C49.5268 54.5315 49.7384 54.7972 50.0237 54.999C50.3091 55.1958 50.6659 55.2942 51.0939 55.2942Z" fill="#494949"/>
<path d="M45.0779 55.774C44.8712 55.774 44.6719 55.7444 44.4801 55.6854C44.2931 55.6263 44.1258 55.5402 43.9782 55.4271C43.8355 55.3139 43.7223 55.1712 43.6387 54.999C43.555 54.8268 43.5132 54.625 43.5132 54.3938C43.5132 54.1625 43.5599 53.9583 43.6534 53.7812C43.7469 53.5991 43.8773 53.4367 44.0446 53.2941C44.2168 53.1464 44.4136 53.0161 44.635 52.9029C44.4481 52.7257 44.3005 52.5363 44.1922 52.3346C44.084 52.1279 44.0298 51.9139 44.0298 51.6925C44.0298 51.4563 44.079 51.2447 44.1774 51.0577C44.2808 50.8658 44.4308 50.7157 44.6277 50.6075C44.8245 50.4943 45.0705 50.4377 45.3657 50.4377C45.597 50.4377 45.8012 50.482 45.9783 50.5706C46.1555 50.6592 46.2932 50.7871 46.3916 50.9544C46.495 51.1217 46.5466 51.3234 46.5466 51.5596C46.5466 51.7712 46.495 51.9655 46.3916 52.1427C46.2883 52.3198 46.1481 52.4822 45.9709 52.6298C45.7938 52.7725 45.5945 52.898 45.3731 53.0062L46.6057 54.4602C46.709 54.3224 46.7902 54.1699 46.8492 54.0026C46.9132 53.8353 46.9599 53.6606 46.9895 53.4786H47.4987C47.4692 53.7443 47.4028 53.9903 47.2995 54.2166C47.201 54.443 47.0854 54.6472 46.9526 54.8292L47.7423 55.7149H47.0411L46.5983 55.2204C46.3769 55.4271 46.1382 55.5722 45.8824 55.6559C45.6314 55.7346 45.3633 55.774 45.0779 55.774ZM45.1591 55.2942C45.351 55.2942 45.5478 55.2622 45.7495 55.1983C45.9513 55.1294 46.1309 55.0113 46.2883 54.844L44.9155 53.2572C44.763 53.331 44.6227 53.422 44.4948 53.5302C44.3669 53.6385 44.2636 53.764 44.1848 53.9066C44.111 54.0444 44.0741 54.2019 44.0741 54.379C44.0741 54.5807 44.1258 54.7505 44.2291 54.8883C44.3324 55.026 44.4677 55.1294 44.635 55.1983C44.8023 55.2622 44.977 55.2942 45.1591 55.2942ZM45.0779 52.6888C45.2107 52.6101 45.3534 52.5191 45.506 52.4158C45.6585 52.3124 45.7864 52.1943 45.8898 52.0615C45.998 51.9237 46.0521 51.7736 46.0521 51.6113C46.0521 51.4686 46.0201 51.3456 45.9562 51.2422C45.8971 51.1389 45.8135 51.0602 45.7052 51.0061C45.597 50.947 45.4715 50.9175 45.3288 50.9175C45.0828 50.9175 44.8909 50.9839 44.7531 51.1168C44.6203 51.2447 44.5539 51.4243 44.5539 51.6556C44.5539 51.7982 44.5809 51.9336 44.635 52.0615C44.6941 52.1845 44.763 52.2977 44.8417 52.401C44.9253 52.5043 45.0041 52.6003 45.0779 52.6888Z" fill="#494949"/>
<path d="M38.812 55.715V51.8254H39.3213L39.336 52.4748C39.4344 52.3125 39.555 52.1821 39.6977 52.0837C39.8404 51.9803 39.9978 51.9041 40.1701 51.8549C40.3423 51.8057 40.5145 51.7811 40.6867 51.7811C41.0607 51.7811 41.3559 51.8598 41.5724 52.0172C41.7889 52.1747 41.9439 52.3887 42.0374 52.6594C42.1308 52.9251 42.1776 53.2277 42.1776 53.5672V55.715H41.6536V53.7369C41.6536 53.545 41.6413 53.3605 41.6167 53.1834C41.5921 53.0013 41.5429 52.839 41.469 52.6963C41.4002 52.5536 41.2968 52.4429 41.1591 52.3641C41.0262 52.2805 40.8466 52.2387 40.6203 52.2387C40.3447 52.2387 40.1085 52.3125 39.9117 52.4601C39.7198 52.6077 39.5747 52.8045 39.4763 53.0505C39.3828 53.2966 39.336 53.5696 39.336 53.8698V55.715H38.812Z" fill="#494949"/>
<path d="M35.7582 55.7592C35.3499 55.7592 35.0079 55.6756 34.7323 55.5083C34.4568 55.3361 34.2501 55.0999 34.1124 54.7998C33.9795 54.4996 33.9131 54.1576 33.9131 53.7738C33.9131 53.3851 33.982 53.0432 34.1197 52.7479C34.2575 52.4478 34.4642 52.2116 34.7397 52.0394C35.0153 51.8672 35.3572 51.7811 35.7656 51.7811C36.174 51.7811 36.5135 51.8672 36.7842 52.0394C37.0597 52.2116 37.2639 52.4478 37.3968 52.7479C37.5345 53.0432 37.6034 53.3851 37.6034 53.7738C37.6034 54.1576 37.5345 54.4996 37.3968 54.7998C37.259 55.0999 37.0523 55.3361 36.7768 55.5083C36.5062 55.6756 36.1666 55.7592 35.7582 55.7592ZM35.7582 55.3016C36.0633 55.3016 36.3143 55.2352 36.5111 55.1024C36.7079 54.9646 36.853 54.7801 36.9465 54.5488C37.04 54.3176 37.0868 54.0592 37.0868 53.7738C37.0868 53.4885 37.04 53.2301 36.9465 52.9989C36.853 52.7676 36.7079 52.5831 36.5111 52.4453C36.3143 52.3076 36.0633 52.2387 35.7582 52.2387C35.4532 52.2387 35.2022 52.3076 35.0054 52.4453C34.8086 52.5831 34.6635 52.7676 34.57 52.9989C34.4814 53.2301 34.4371 53.4885 34.4371 53.7738C34.4371 54.0592 34.4814 54.3176 34.57 54.5488C34.6635 54.7801 34.8086 54.9646 35.0054 55.1024C35.2022 55.2352 35.4532 55.3016 35.7582 55.3016Z" fill="#494949"/>
<path d="M32.1777 55.7149V51.8253H32.7017V55.7149H32.1777ZM32.436 51.198C32.3228 51.198 32.2318 51.1635 32.1629 51.0947C32.094 51.0258 32.0596 50.9347 32.0596 50.8216C32.0596 50.7084 32.094 50.6198 32.1629 50.5559C32.2367 50.487 32.3277 50.4525 32.436 50.4525C32.5393 50.4525 32.6279 50.487 32.7017 50.5559C32.7804 50.6248 32.8198 50.7133 32.8198 50.8216C32.8198 50.9347 32.7829 51.0258 32.7091 51.0947C32.6353 51.1635 32.5442 51.198 32.436 51.198Z" fill="#494949"/>
<path d="M30.7056 55.7149C30.4202 55.7149 30.189 55.6706 30.0118 55.582C29.8347 55.4935 29.7043 55.3582 29.6207 55.1761C29.537 54.9891 29.4952 54.753 29.4952 54.4676V52.2829H28.8457V51.8253H29.4952V50.6665H30.0192V51.8253H31.0968V52.2829H30.0192V54.4159C30.0192 54.7013 30.0734 54.9153 30.1816 55.058C30.2898 55.1958 30.5014 55.2647 30.8163 55.2647H31.0747V55.7149H30.7056Z" fill="#494949"/>
<path d="M25.9461 55.7592C25.7788 55.7592 25.614 55.7396 25.4516 55.7002C25.2892 55.6559 25.1416 55.5895 25.0088 55.5009C24.8759 55.4074 24.7677 55.2893 24.684 55.1466C24.6053 54.999 24.5659 54.8268 24.5659 54.63C24.5659 54.4086 24.6053 54.2241 24.684 54.0764C24.7677 53.9288 24.8784 53.8107 25.0161 53.7222C25.1539 53.6336 25.3114 53.5721 25.4885 53.5377C25.6656 53.4983 25.8526 53.4786 26.0494 53.4786H27.282C27.282 53.2375 27.2476 53.0259 27.1787 52.8439C27.1147 52.6569 27.0065 52.5093 26.8539 52.401C26.7063 52.2928 26.507 52.2387 26.2561 52.2387C26.1232 52.2387 25.9953 52.2534 25.8723 52.283C25.7493 52.3125 25.6386 52.3617 25.5402 52.4306C25.4467 52.4945 25.3729 52.5831 25.3187 52.6963H24.7578C24.8021 52.5241 24.8759 52.3789 24.9792 52.2608C25.0875 52.1427 25.213 52.0492 25.3556 51.9803C25.4983 51.9065 25.6484 51.8549 25.8059 51.8254C25.9633 51.7958 26.1134 51.7811 26.2561 51.7811C26.8072 51.7811 27.2008 51.9459 27.437 52.2756C27.6732 52.6052 27.7913 53.0481 27.7913 53.6041V55.715H27.341L27.3189 55.1835C27.2106 55.3312 27.0803 55.4468 26.9277 55.5304C26.7801 55.6141 26.6227 55.6731 26.4554 55.7076C26.2881 55.742 26.1183 55.7592 25.9461 55.7592ZM25.983 55.3016C26.2241 55.3016 26.4431 55.2623 26.6399 55.1835C26.8367 55.0999 26.9917 54.9769 27.1049 54.8145C27.223 54.6521 27.282 54.4504 27.282 54.2093V53.9141H26.4111C26.2585 53.9141 26.1036 53.919 25.9461 53.9288C25.7886 53.9338 25.646 53.9584 25.518 54.0026C25.3901 54.042 25.2868 54.1084 25.208 54.2019C25.1293 54.2905 25.0899 54.4184 25.0899 54.5857C25.0899 54.753 25.1318 54.8908 25.2154 54.999C25.2991 55.1024 25.4098 55.1786 25.5475 55.2278C25.6853 55.277 25.8305 55.3016 25.983 55.3016Z" fill="#494949"/>
<path d="M18.2681 55.715V51.8254H18.77L18.7847 52.3789C18.8733 52.2264 18.9766 52.1083 19.0947 52.0246C19.2177 51.9361 19.3481 51.8746 19.4859 51.8401C19.6236 51.8007 19.7614 51.7811 19.8992 51.7811C20.1747 51.7811 20.4011 51.8475 20.5782 51.9803C20.7603 52.1132 20.8907 52.2953 20.9694 52.5265C21.0383 52.3887 21.1268 52.2633 21.2351 52.1501C21.3433 52.0369 21.4762 51.9484 21.6336 51.8844C21.7911 51.8155 21.9707 51.7811 22.1724 51.7811C22.4578 51.7811 22.6891 51.8426 22.8662 51.9656C23.0433 52.0837 23.1713 52.246 23.25 52.4527C23.3337 52.6594 23.3755 52.8931 23.3755 53.1539V55.715H22.8514V53.4343C22.8514 53.2916 22.8441 53.1514 22.8293 53.0136C22.8145 52.8709 22.7801 52.743 22.726 52.6298C22.6719 52.5118 22.5907 52.4183 22.4824 52.3494C22.3791 52.2756 22.2364 52.2387 22.0543 52.2387C21.8772 52.2387 21.7271 52.2805 21.6041 52.3641C21.486 52.4429 21.3876 52.5511 21.3089 52.6889C21.2351 52.8217 21.181 52.9694 21.1465 53.1317C21.117 53.2892 21.1022 53.4442 21.1022 53.5967V55.715H20.5782V53.486C20.5782 53.3531 20.5684 53.2154 20.5487 53.0727C20.5339 52.9251 20.5019 52.7873 20.4527 52.6594C20.4035 52.5314 20.3248 52.4306 20.2166 52.3568C20.1083 52.278 19.9656 52.2387 19.7885 52.2387C19.5326 52.2387 19.3309 52.31 19.1833 52.4527C19.0406 52.5905 18.9397 52.7676 18.8807 52.9841C18.8216 53.1957 18.7921 53.4122 18.7921 53.6336V55.715H18.2681Z" fill="#494949"/>
<path d="M15.2138 55.7592C14.8054 55.7592 14.4634 55.6756 14.1879 55.5083C13.9124 55.3361 13.7057 55.0999 13.5679 54.7998C13.4351 54.4996 13.3687 54.1576 13.3687 53.7738C13.3687 53.3851 13.4375 53.0432 13.5753 52.7479C13.7131 52.4478 13.9197 52.2116 14.1953 52.0394C14.4708 51.8672 14.8128 51.7811 15.2212 51.7811C15.6296 51.7811 15.9691 51.8672 16.2397 52.0394C16.5153 52.2116 16.7195 52.4478 16.8523 52.7479C16.9901 53.0432 17.059 53.3851 17.059 53.7738C17.059 54.1576 16.9901 54.4996 16.8523 54.7998C16.7145 55.0999 16.5079 55.3361 16.2323 55.5083C15.9617 55.6756 15.6222 55.7592 15.2138 55.7592ZM15.2138 55.3016C15.5189 55.3016 15.7698 55.2352 15.9666 55.1024C16.1635 54.9646 16.3086 54.7801 16.4021 54.5488C16.4956 54.3176 16.5423 54.0592 16.5423 53.7738C16.5423 53.4885 16.4956 53.2301 16.4021 52.9989C16.3086 52.7676 16.1635 52.5831 15.9666 52.4453C15.7698 52.3076 15.5189 52.2387 15.2138 52.2387C14.9087 52.2387 14.6578 52.3076 14.461 52.4453C14.2642 52.5831 14.119 52.7676 14.0255 52.9989C13.937 53.2301 13.8927 53.4885 13.8927 53.7738C13.8927 54.0592 13.937 54.3176 14.0255 54.5488C14.119 54.7801 14.2642 54.9646 14.461 55.1024C14.6578 55.2352 14.9087 55.3016 15.2138 55.3016Z" fill="#494949"/>
<path d="M11.7462 55.7591C11.3427 55.7591 11.0598 55.6509 10.8974 55.4344C10.7399 55.213 10.6612 54.903 10.6612 54.5044V52.2829H10.0117V51.8253H10.6612V50.6591H11.1852V51.8253H12.4252V52.2829H11.1852V54.4232C11.1852 54.5758 11.1975 54.7185 11.2221 54.8513C11.2517 54.9842 11.3107 55.0924 11.3993 55.1761C11.4878 55.2597 11.6232 55.3015 11.8052 55.3015C11.9085 55.3015 12.0045 55.2843 12.0931 55.2499C12.1866 55.2154 12.2653 55.1736 12.3292 55.1244L12.5433 55.5082C12.4695 55.5672 12.3883 55.6165 12.2997 55.6558C12.2161 55.6952 12.1275 55.7222 12.034 55.737C11.9454 55.7518 11.8495 55.7591 11.7462 55.7591Z" fill="#494949"/>
<path d="M7.32291 55.7591C6.78166 55.7591 6.37572 55.614 6.1051 55.3237C5.83939 55.0333 5.70654 54.6003 5.70654 54.0247V51.8252H6.23057V54.0099C6.23057 54.2707 6.26747 54.4995 6.34128 54.6963C6.42001 54.8882 6.5381 55.0383 6.69555 55.1465C6.85792 55.2498 7.06704 55.3015 7.32291 55.3015C7.58369 55.3015 7.79527 55.2498 7.95764 55.1465C8.12494 55.0432 8.24549 54.8956 8.31929 54.7037C8.3931 54.5069 8.43 54.2756 8.43 54.0099V51.8252H8.95403V54.0247C8.95403 54.6003 8.81872 55.0333 8.54809 55.3237C8.27747 55.614 7.86907 55.7591 7.32291 55.7591Z" fill="#494949"/>
<path d="M0.0947266 55.7149L2.07274 50.4967H2.80342L4.78144 55.7149H4.19837L3.77029 54.5635H1.10588L0.677798 55.7149H0.0947266ZM1.28301 54.0837H3.58577L2.43439 50.9912L1.28301 54.0837Z" fill="#494949"/>
</g>
<g clip-path="url(#clip1_4752_8353)">
<path d="M122.763 14.3078L125.627 12.3651L128.972 14.4241L126.122 16.3563L122.763 14.3078Z" fill="#1BC1D7"/>
<path d="M117.803 11.2282L120.604 9.28647L123.976 11.3417L121.103 13.2901L117.803 11.2282Z" fill="#1BC1D7"/>
<path d="M115.608 6.22504L113.238 7.83203L116.012 9.57158L118.413 7.94361L115.608 6.22504Z" fill="#1BC1D7"/>
<path d="M110.446 3.06259L112.707 4.44832L110.581 5.89032L108.312 4.50936L110.446 3.06259Z" fill="#1BC1D7"/>
<path d="M104.951 0.000366211L107.151 1.34986L104.951 2.8424L102.762 1.48433L104.951 0.000366211Z" fill="#1BC1D7"/>
<path d="M117.902 17.6046L120.687 15.7153L123.657 17.535L120.78 19.4281L117.902 17.6046Z" fill="#1BC1D7"/>
<path d="M115.664 12.6367L113.238 14.2819L115.931 16.009L118.413 14.3229L115.664 12.6367Z" fill="#1BC1D7"/>
<path d="M110.673 9.57159L108.424 11.0975L110.673 12.529L112.957 10.9793L110.673 9.57159Z" fill="#1BC1D7"/>
<path d="M103.114 8.03536L105.141 6.66013L107.151 7.89899L105.132 9.27422L103.114 8.03536Z" fill="#1BC1D7"/>
<path d="M98.1016 4.64578L99.6141 3.6196L101.038 4.47602L99.5693 5.57564L98.1016 4.64578Z" fill="#1BC1D7"/>
<path d="M113.472 20.5982L115.904 18.9598L118.412 20.5153L115.942 22.2415L113.472 20.5982Z" fill="#1BC1D7"/>
<path d="M110.578 16.2057L108.545 17.641L110.578 18.8761L112.612 17.4798L110.578 16.2057Z" fill="#1BC1D7"/>
<path d="M103.114 14.5558L104.9 13.2903L106.674 14.5558L104.894 15.8185L103.114 14.5558Z" fill="#1BC1D7"/>
<path d="M98.1016 11.2883L99.5178 10.3032L100.933 11.2883L99.5178 12.2544L98.1016 11.2883Z" fill="#1BC1D7"/>
<path d="M92.9087 8.16774L94.2 7.29224L95.4169 7.96746L94.1628 8.86775L92.9087 8.16774Z" fill="#1BC1D7"/>
<path d="M103.114 20.9902L105 19.6541L106.951 20.9158L105.033 22.3406L103.114 20.9902Z" fill="#1BC1D7"/>
<path d="M97.9697 17.6868L99.5338 16.6606L101.097 17.6496L99.5338 18.713L97.9697 17.6868Z" fill="#1BC1D7"/>
<path d="M98.1016 24.1834L99.6656 23.1572L101.23 24.1462L99.6656 25.2095L98.1016 24.1834Z" fill="#1BC1D7"/>
<path d="M92.9312 14.8026L94.067 14.0139L95.3364 14.8798L94.2282 15.6504L92.9312 14.8026Z" fill="#1BC1D7"/>
<path d="M93.1841 21.059L94.3199 20.2703L95.5903 21.1363L94.4811 21.9078L93.1841 21.059Z" fill="#1BC1D7"/>
<path d="M87.7373 11.645L88.67 10.9974L89.7115 11.7079L88.8016 12.3412L87.7373 11.645Z" fill="#1BC1D7"/>
<path d="M87.9282 18.1885L88.8609 17.5419L89.9024 18.2524L88.9926 18.8847L87.9282 18.1885Z" fill="#1BC1D7"/>
<path d="M82.6611 15.0115L83.4661 14.4527L84.3654 15.0659L83.5805 15.6124L82.6611 15.0115Z" fill="#1BC1D7"/>
<path d="M104.25 26.3929L106.37 27.6928V30.9831L104.25 29.6841V26.3929Z" fill="#1BC1D7"/>
<path d="M104.25 31.8188L106.37 33.1177V36.409L104.25 35.11V31.8188Z" fill="#1BC1D7"/>
<path d="M104.25 37.2431L106.37 38.543V41.8343L104.25 40.5344V37.2431Z" fill="#1BC1D7"/>
<path d="M104.25 42.6691L106.37 43.968V47.2592L104.25 45.9603V42.6691Z" fill="#1BC1D7"/>
<path d="M104.25 48.0945L106.37 49.3934V52.6846L104.25 51.3847V48.0945Z" fill="#1BC1D7"/>
<path d="M108.113 28.7838L110.234 30.0828V33.374L108.113 32.075V28.7838Z" fill="#1BC1D7"/>
<path d="M108.113 34.2087L110.234 35.5086V38.7998L108.113 37.4999V34.2087Z" fill="#1BC1D7"/>
<path d="M108.113 39.6341L110.234 40.933V44.2243L108.113 42.9253V39.6341Z" fill="#1BC1D7"/>
<path d="M108.113 45.06L110.234 46.3589V49.6502L108.113 48.3503V45.06Z" fill="#1BC1D7"/>
<path d="M108.113 50.4843L110.234 51.7842V55.0745L108.113 53.7756V50.4843Z" fill="#1BC1D7"/>
<path d="M111.514 55.17L113.634 53.8711V50.5798L111.514 51.8797V55.17Z" fill="#1BC1D7"/>
<path d="M111.514 49.7454L113.634 48.4455V45.1552L111.514 46.4542V49.7454Z" fill="#1BC1D7"/>
<path d="M111.514 44.3197L113.634 43.0208V39.7296L111.514 41.0285V44.3197Z" fill="#1BC1D7"/>
<path d="M111.514 38.8953L113.634 37.5954V34.3042L111.514 35.6041V38.8953Z" fill="#1BC1D7"/>
<path d="M111.514 33.4695L113.634 32.1705V28.8793L111.514 30.1782V33.4695Z" fill="#1BC1D7"/>
<path d="M115.209 52.6846L117.329 51.3847V48.0945L115.209 49.3934V52.6846Z" fill="#1BC1D7"/>
<path d="M115.209 47.2592L117.329 45.9603V42.6691L115.209 43.968V47.2592Z" fill="#1BC1D7"/>
<path d="M115.209 41.8343L117.329 40.5344V37.2431L115.209 38.543V41.8343Z" fill="#1BC1D7"/>
<path d="M115.209 36.409L117.329 35.11V31.8188L115.209 33.1177V36.409Z" fill="#1BC1D7"/>
<path d="M115.209 30.9831L117.329 29.6841V26.3929L115.209 27.6928V30.9831Z" fill="#1BC1D7"/>
<path d="M120.269 48.9577L121.329 48.3082V46.6631L120.269 47.3125V48.9577Z" fill="#1BC1D7"/>
<path d="M120.095 43.718L121.329 42.9617V41.0467L120.095 41.803V43.718Z" fill="#1BC1D7"/>
<path d="M119.893 38.158L121.329 37.2787V35.049L119.893 35.9292V38.158Z" fill="#1BC1D7"/>
<path d="M119.89 32.1668L121.329 31.2856V29.052L119.89 29.9332V32.1668Z" fill="#1BC1D7"/>
<path d="M119.615 27.2179L121.329 26.1678V23.5089L119.615 24.558V27.2179Z" fill="#1BC1D7"/>
<path d="M124.694 45.8591L125.755 45.2087V43.5635L124.694 44.213V45.8591Z" fill="#1BC1D7"/>
<path d="M124.521 40.6184L125.755 39.863V37.948L124.521 38.7033V40.6184Z" fill="#1BC1D7"/>
<path d="M124.319 35.25L125.755 34.3697V32.1409L124.319 33.0212V35.25Z" fill="#1BC1D7"/>
<path d="M124.315 29.2589L125.755 28.3768V26.1432L124.315 27.0254V29.2589Z" fill="#1BC1D7"/>
<path d="M124.041 24.3093L125.755 23.2593V20.6004L124.041 21.6504V24.3093Z" fill="#1BC1D7"/>
<path d="M128.939 42.8292L130 42.1787V40.5336L128.939 41.1831V42.8292Z" fill="#1BC1D7"/>
<path d="M128.766 37.6839L130 36.9286V35.0135L128.766 35.7689V37.6839Z" fill="#1BC1D7"/>
<path d="M128.564 32.3156L130 31.4353V29.2065L128.564 30.0868V32.3156Z" fill="#1BC1D7"/>
<path d="M128.561 26.3242L130 25.442V23.2085L128.561 24.0906V26.3242Z" fill="#1BC1D7"/>
<path d="M128.286 21.3748L130 20.3248V17.6659L128.286 18.7159V21.3748Z" fill="#1BC1D7"/>
<path d="M106.286 23.6759V23.14H109.103V23.6759H108.012V26.6706H107.378V23.6759H106.287H106.286Z" fill="#082954"/>
<path d="M109.644 23.1398H110.427L111.475 25.6986H111.516L112.564 23.1398H113.347V26.6704H112.733V24.2452H112.701L111.725 26.6609H111.266L110.291 24.2404H110.258V26.6714H109.644V23.1408V23.1398Z" fill="#082954"/>
</g>
<defs>
<clipPath id="clip0_4752_8353">
<rect width="102.204" height="29.6172" fill="white" transform="translate(0 27.5538)"/>
</clipPath>
<clipPath id="clip1_4752_8353">
<rect width="47.3389" height="55.1698" fill="white" transform="translate(82.6611 0.000183105)"/>
</clipPath>
</defs>
</svg>
