<svg width="130" height="58" viewBox="0 0 130 58" fill="none" xmlns="http://www.w3.org/2000/svg">
<g clip-path="url(#clip0_4752_8546)">
<path d="M59.0396 47.3035L64.2189 27.5538H67.5006L71.3806 39.0122C71.3866 39.0261 79.8693 27.5538 79.8693 27.5538H82.9299L82.1401 47.3035H78.6846L79.1763 33.4814L70.5888 44.7326C69.9984 43.4669 69.4535 42.5388 68.9559 41.2356C68.2588 39.4091 66.0868 33.6631 66.0868 33.6631L62.3331 47.3035C62.3114 47.3844 62.2384 47.3035 62.1554 47.3035H59.0396Z" fill="white"/>
<path d="M19.5483 47.3034H16.0928L14.7106 42.3117H6.37788L3.45551 47.3034H0L10.5028 27.5537H14.7126C14.7126 27.5537 15.2339 29.4869 15.3444 29.8857C16.701 34.8222 19.5898 46.9638 19.5483 47.3034ZM14.0195 39.4051L12.1436 31.5108L8.09576 39.4051H14.0195Z" fill="white"/>
<path d="M48.2786 27.5538L48.1798 30.5216C48.1798 30.5216 39.3811 30.2491 38.5103 31.2186C37.5389 32.0045 37.3414 33.908 38.3208 34.7491C39.5194 35.7779 43.4744 36.2715 45.2812 37.4642C48.2154 39.4012 46.9615 44.4759 44.365 46.1582C43.8279 46.5058 42.3371 47.3035 41.3636 47.3035H31.9844L32.399 44.3633C32.7327 44.081 39.8669 44.4976 41.1484 44.3258C43.1743 44.0514 44.2248 41.208 42.8366 39.9087C41.4485 38.6094 36.4983 38.6311 34.8594 36.4334C33.6173 34.7689 34.0518 31.2285 35.4596 29.7495C36.4588 28.699 37.9219 27.5538 40.7712 27.5538H48.2746H48.2786Z" fill="white"/>
<path d="M102.115 27.5538L102.016 30.5176C102.016 30.5176 93.2176 30.2451 92.3468 31.2146C91.3753 32.0005 91.1778 33.904 92.1572 34.7452C93.3558 35.7739 97.3109 36.2676 99.1176 37.4602C102.052 39.3973 100.798 44.4719 98.2014 46.1543C97.6643 46.5018 96.1735 47.3035 95.2 47.3035H85.8208L86.2355 44.3594C86.19 44.3594 93.7033 44.4937 94.9848 44.3219C97.0107 44.0474 98.0612 41.204 96.6731 39.9047C95.2514 38.5739 90.3347 38.6272 88.6958 36.4295C87.4538 34.7649 87.8882 31.2245 89.2961 29.7456C90.2952 28.6951 91.7583 27.5538 94.6077 27.5538H102.111H102.115Z" fill="white"/>
<path d="M27.1171 47.3035H23.6616L26.8209 27.5538H30.2764L27.1171 47.3035Z" fill="white"/>
<path d="M54.4785 47.3215H51.0229L54.1823 27.5717H57.6378L54.4785 47.3215Z" fill="white"/>
<path d="M90.9482 55.7146V51.825H91.4575L91.4723 52.4745C91.5707 52.3121 91.6912 52.1817 91.8339 52.0833C91.9766 51.98 92.1341 51.9037 92.3063 51.8545C92.4785 51.8053 92.6507 51.7807 92.8229 51.7807C93.1969 51.7807 93.4921 51.8595 93.7086 52.0169C93.9251 52.1744 94.0801 52.3884 94.1736 52.659C94.2671 52.9247 94.3138 53.2273 94.3138 53.5668V55.7146H93.7898V53.7366C93.7898 53.5447 93.7775 53.3602 93.7529 53.1831C93.7283 53.001 93.6791 52.8386 93.6053 52.6959C93.5364 52.5532 93.4331 52.4425 93.2953 52.3638C93.1624 52.2802 92.9828 52.2383 92.7565 52.2383C92.481 52.2383 92.2448 52.3121 92.048 52.4598C91.8561 52.6074 91.7109 52.8042 91.6125 53.0502C91.519 53.2962 91.4723 53.5693 91.4723 53.8695V55.7146H90.9482Z" fill="white"/>
<path d="M87.894 55.7589C87.4856 55.7589 87.1436 55.6753 86.8681 55.508C86.5925 55.3357 86.3859 55.0996 86.2481 54.7994C86.1153 54.4993 86.0488 54.1573 86.0488 53.7735C86.0488 53.3848 86.1177 53.0428 86.2555 52.7476C86.3933 52.4475 86.5999 52.2113 86.8755 52.0391C87.151 51.8668 87.493 51.7807 87.9014 51.7807C88.3098 51.7807 88.6493 51.8668 88.9199 52.0391C89.1954 52.2113 89.3996 52.4475 89.5325 52.7476C89.6703 53.0428 89.7392 53.3848 89.7392 53.7735C89.7392 54.1573 89.6703 54.4993 89.5325 54.7994C89.3947 55.0996 89.1881 55.3357 88.9125 55.508C88.6419 55.6753 88.3024 55.7589 87.894 55.7589ZM87.894 55.3013C88.1991 55.3013 88.45 55.2349 88.6468 55.102C88.8436 54.9643 88.9888 54.7797 89.0823 54.5485C89.1758 54.3172 89.2225 54.0589 89.2225 53.7735C89.2225 53.4881 89.1758 53.2298 89.0823 52.9985C88.9888 52.7673 88.8436 52.5828 88.6468 52.445C88.45 52.3072 88.1991 52.2383 87.894 52.2383C87.5889 52.2383 87.338 52.3072 87.1412 52.445C86.9443 52.5828 86.7992 52.7673 86.7057 52.9985C86.6171 53.2298 86.5729 53.4881 86.5729 53.7735C86.5729 54.0589 86.6171 54.3172 86.7057 54.5485C86.7992 54.7797 86.9443 54.9643 87.1412 55.102C87.338 55.2349 87.5889 55.3013 87.894 55.3013Z" fill="white"/>
<path d="M84.3134 55.7149V51.8253H84.8374V55.7149H84.3134ZM84.5717 51.1979C84.4586 51.1979 84.3675 51.1635 84.2986 51.0946C84.2298 51.0257 84.1953 50.9347 84.1953 50.8215C84.1953 50.7083 84.2298 50.6198 84.2986 50.5558C84.3724 50.4869 84.4635 50.4525 84.5717 50.4525C84.6751 50.4525 84.7636 50.4869 84.8374 50.5558C84.9162 50.6247 84.9555 50.7133 84.9555 50.8215C84.9555 50.9347 84.9186 51.0257 84.8448 51.0946C84.771 51.1635 84.68 51.1979 84.5717 51.1979Z" fill="white"/>
<path d="M82.8419 55.7145C82.5565 55.7145 82.3252 55.6702 82.1481 55.5817C81.9709 55.4931 81.8406 55.3578 81.7569 55.1757C81.6733 54.9888 81.6314 54.7526 81.6314 54.4672V52.2825H80.9819V51.8249H81.6314V50.6662H82.1555V51.8249H83.233V52.2825H82.1555V54.4155C82.1555 54.7009 82.2096 54.915 82.3178 55.0577C82.4261 55.1954 82.6377 55.2643 82.9526 55.2643H83.2109V55.7145H82.8419Z" fill="white"/>
<path d="M78.0823 55.7589C77.915 55.7589 77.7502 55.7392 77.5878 55.6999C77.4255 55.6556 77.2778 55.5891 77.145 55.5006C77.0121 55.4071 76.9039 55.289 76.8202 55.1463C76.7415 54.9987 76.7021 54.8265 76.7021 54.6297C76.7021 54.4082 76.7415 54.2237 76.8202 54.0761C76.9039 53.9285 77.0146 53.8104 77.1524 53.7218C77.2901 53.6333 77.4476 53.5718 77.6247 53.5373C77.8019 53.498 77.9888 53.4783 78.1857 53.4783H79.4182C79.4182 53.2372 79.3838 53.0256 79.3149 52.8435C79.2509 52.6566 79.1427 52.509 78.9902 52.4007C78.8425 52.2925 78.6433 52.2383 78.3923 52.2383C78.2595 52.2383 78.1315 52.2531 78.0085 52.2826C77.8855 52.3121 77.7748 52.3613 77.6764 52.4302C77.5829 52.4942 77.5091 52.5828 77.455 52.6959H76.894C76.9383 52.5237 77.0121 52.3786 77.1155 52.2605C77.2237 52.1424 77.3492 52.0489 77.4919 51.98C77.6346 51.9062 77.7846 51.8545 77.9421 51.825C78.0995 51.7955 78.2496 51.7807 78.3923 51.7807C78.9434 51.7807 79.337 51.9456 79.5732 52.2752C79.8094 52.6049 79.9275 53.0477 79.9275 53.6038V55.7146H79.4773L79.4551 55.1832C79.3469 55.3308 79.2165 55.4465 79.064 55.5301C78.9163 55.6137 78.7589 55.6728 78.5916 55.7072C78.4243 55.7417 78.2545 55.7589 78.0823 55.7589ZM78.1192 55.3013C78.3603 55.3013 78.5793 55.2619 78.7761 55.1832C78.9729 55.0996 79.1279 54.9766 79.2411 54.8142C79.3592 54.6518 79.4182 54.4501 79.4182 54.209V53.9137H78.5473C78.3948 53.9137 78.2398 53.9187 78.0823 53.9285C77.9249 53.9334 77.7822 53.958 77.6543 54.0023C77.5263 54.0417 77.423 54.1081 77.3443 54.2016C77.2655 54.2902 77.2262 54.4181 77.2262 54.5854C77.2262 54.7527 77.268 54.8904 77.3516 54.9987C77.4353 55.102 77.546 55.1783 77.6838 55.2275C77.8215 55.2767 77.9667 55.3013 78.1192 55.3013Z" fill="white"/>
<path d="M72.5269 55.7148V55.2572L74.9846 52.2828H72.5416V51.8252H75.6341V52.2754L73.1542 55.2645H75.6341V55.7148H72.5269Z" fill="white"/>
<path d="M70.7914 55.7149V51.8253H71.3155V55.7149H70.7914ZM71.0498 51.1979C70.9366 51.1979 70.8456 51.1635 70.7767 51.0946C70.7078 51.0257 70.6733 50.9347 70.6733 50.8215C70.6733 50.7083 70.7078 50.6198 70.7767 50.5558C70.8505 50.4869 70.9415 50.4525 71.0498 50.4525C71.1531 50.4525 71.2416 50.4869 71.3155 50.5558C71.3942 50.6247 71.4335 50.7133 71.4335 50.8215C71.4335 50.9347 71.3966 51.0257 71.3228 51.0946C71.249 51.1635 71.158 51.1979 71.0498 51.1979Z" fill="white"/>
<path d="M64.353 55.7146V51.825H64.8549L64.8697 52.3786C64.9582 52.226 65.0616 52.1079 65.1797 52.0243C65.3027 51.9357 65.4331 51.8742 65.5708 51.8398C65.7086 51.8004 65.8464 51.7807 65.9841 51.7807C66.2597 51.7807 66.486 51.8472 66.6632 51.98C66.8452 52.1129 66.9756 52.2949 67.0543 52.5262C67.1232 52.3884 67.2118 52.2629 67.32 52.1498C67.4283 52.0366 67.5612 51.948 67.7186 51.8841C67.8761 51.8152 68.0557 51.7807 68.2574 51.7807C68.5428 51.7807 68.774 51.8422 68.9512 51.9652C69.1283 52.0833 69.2562 52.2457 69.335 52.4524C69.4186 52.659 69.4604 52.8927 69.4604 53.1535V55.7146H68.9364V53.434C68.9364 53.2913 68.929 53.1511 68.9143 53.0133C68.8995 52.8706 68.8651 52.7427 68.8109 52.6295C68.7568 52.5114 68.6756 52.4179 68.5674 52.349C68.464 52.2752 68.3214 52.2383 68.1393 52.2383C67.9622 52.2383 67.8121 52.2802 67.6891 52.3638C67.571 52.4425 67.4726 52.5508 67.3939 52.6886C67.3201 52.8214 67.2659 52.969 67.2315 53.1314C67.202 53.2888 67.1872 53.4438 67.1872 53.5964V55.7146H66.6632V53.4857C66.6632 53.3528 66.6533 53.215 66.6337 53.0723C66.6189 52.9247 66.5869 52.787 66.5377 52.659C66.4885 52.5311 66.4098 52.4302 66.3015 52.3564C66.1933 52.2777 66.0506 52.2383 65.8734 52.2383C65.6176 52.2383 65.4158 52.3097 65.2682 52.4524C65.1255 52.5901 65.0247 52.7673 64.9656 52.9838C64.9066 53.1954 64.8771 53.4119 64.8771 53.6333V55.7146H64.353Z" fill="white"/>
<path d="M62.4701 55.7149V51.8253H62.9942V55.7149H62.4701ZM62.7285 51.1979C62.6153 51.1979 62.5243 51.1635 62.4554 51.0946C62.3865 51.0257 62.3521 50.9347 62.3521 50.8215C62.3521 50.7083 62.3865 50.6198 62.4554 50.5558C62.5292 50.4869 62.6202 50.4525 62.7285 50.4525C62.8318 50.4525 62.9204 50.4869 62.9942 50.5558C63.0729 50.6247 63.1123 50.7133 63.1123 50.8215C63.1123 50.9347 63.0754 51.0257 63.0015 51.0946C62.9277 51.1635 62.8367 51.1979 62.7285 51.1979Z" fill="white"/>
<path d="M60.9986 55.7145C60.7132 55.7145 60.4819 55.6702 60.3048 55.5817C60.1277 55.4931 59.9973 55.3578 59.9136 55.1757C59.83 54.9888 59.7882 54.7526 59.7882 54.4672V52.2825H59.1387V51.8249H59.7882V50.6662H60.3122V51.8249H61.3898V52.2825H60.3122V54.4155C60.3122 54.7009 60.3663 54.915 60.4746 55.0577C60.5828 55.1954 60.7944 55.2643 61.1093 55.2643H61.3676V55.7145H60.9986Z" fill="white"/>
<path d="M54.7539 57.1538V51.825H55.2558L55.2779 52.4671C55.4305 52.2359 55.6224 52.0637 55.8536 51.9505C56.0898 51.8373 56.353 51.7807 56.6434 51.7807C57.037 51.7807 57.3593 51.8693 57.6102 52.0464C57.8612 52.2236 58.0481 52.4647 58.1711 52.7697C58.2942 53.0699 58.3557 53.4069 58.3557 53.7809C58.3557 54.1647 58.2917 54.5067 58.1638 54.8068C58.0408 55.1069 57.8489 55.3407 57.5881 55.508C57.3322 55.6753 57.0075 55.7589 56.6138 55.7589C56.4318 55.7589 56.2571 55.7392 56.0898 55.6999C55.9225 55.6605 55.77 55.5965 55.6322 55.508C55.4944 55.4145 55.3763 55.2939 55.2779 55.1463V57.1538H54.7539ZM56.5917 55.3013C56.8968 55.3013 57.1379 55.2324 57.315 55.0946C57.497 54.9519 57.6274 54.765 57.7062 54.5337C57.7898 54.3025 57.8316 54.0491 57.8316 53.7735C57.8316 53.493 57.7898 53.2372 57.7062 53.0059C57.6225 52.7747 57.4872 52.5901 57.3002 52.4524C57.1133 52.3097 56.8672 52.2383 56.5622 52.2383C56.2817 52.2383 56.0431 52.3097 55.8462 52.4524C55.6543 52.5951 55.5092 52.7845 55.4108 53.0207C55.3124 53.2569 55.2632 53.5103 55.2632 53.7809C55.2632 54.0712 55.3099 54.332 55.4034 54.5632C55.5018 54.7896 55.6494 54.9692 55.8462 55.102C56.048 55.2349 56.2965 55.3013 56.5917 55.3013Z" fill="white"/>
<path d="M51.0939 55.7739C50.5527 55.7739 50.1 55.6582 49.7359 55.427C49.3767 55.1957 49.1036 54.8783 48.9166 54.4749C48.7346 54.0714 48.6436 53.6163 48.6436 53.1094C48.6436 52.5977 48.7346 52.1401 48.9166 51.7366C49.1036 51.3332 49.3767 51.0158 49.7359 50.7845C50.1 50.5533 50.5527 50.4377 51.0939 50.4377C51.6352 50.4377 52.0854 50.5533 52.4446 50.7845C52.8038 51.0158 53.0744 51.3332 53.2565 51.7366C53.4434 52.1401 53.5369 52.5977 53.5369 53.1094C53.5369 53.6163 53.4434 54.0714 53.2565 54.4749C53.0744 54.8783 52.8038 55.1957 52.4446 55.427C52.0854 55.6582 51.6352 55.7739 51.0939 55.7739ZM51.0939 55.2941C51.5269 55.2941 51.8837 55.1957 52.1641 54.9989C52.4446 54.8021 52.6512 54.5388 52.7841 54.2092C52.9219 53.8746 52.9908 53.508 52.9908 53.1094C52.9908 52.8093 52.9514 52.5264 52.8727 52.2607C52.7989 51.995 52.6832 51.7612 52.5258 51.5595C52.3683 51.3578 52.169 51.2003 51.9279 51.0871C51.6918 50.974 51.4138 50.9174 51.0939 50.9174C50.6659 50.9174 50.3091 51.0183 50.0237 51.22C49.7433 51.4168 49.5317 51.6825 49.389 52.0171C49.2512 52.3468 49.1823 52.7109 49.1823 53.1094C49.1823 53.5031 49.2512 53.8672 49.389 54.2018C49.5268 54.5315 49.7384 54.7972 50.0237 54.9989C50.3091 55.1957 50.6659 55.2941 51.0939 55.2941Z" fill="white"/>
<path d="M45.0779 55.7739C44.8712 55.7739 44.6719 55.7443 44.4801 55.6853C44.2931 55.6262 44.1258 55.5401 43.9782 55.427C43.8355 55.3138 43.7223 55.1711 43.6387 54.9989C43.555 54.8267 43.5132 54.6249 43.5132 54.3937C43.5132 54.1624 43.5599 53.9582 43.6534 53.7811C43.7469 53.599 43.8773 53.4367 44.0446 53.294C44.2168 53.1464 44.4136 53.016 44.635 52.9028C44.4481 52.7257 44.3005 52.5362 44.1922 52.3345C44.084 52.1278 44.0298 51.9138 44.0298 51.6924C44.0298 51.4562 44.079 51.2446 44.1774 51.0576C44.2808 50.8657 44.4308 50.7157 44.6277 50.6074C44.8245 50.4942 45.0705 50.4377 45.3657 50.4377C45.597 50.4377 45.8012 50.4819 45.9783 50.5705C46.1555 50.6591 46.2932 50.787 46.3916 50.9543C46.495 51.1216 46.5466 51.3233 46.5466 51.5595C46.5466 51.7711 46.495 51.9654 46.3916 52.1426C46.2883 52.3197 46.1481 52.4821 45.9709 52.6297C45.7938 52.7724 45.5945 52.8979 45.3731 53.0061L46.6057 54.4601C46.709 54.3223 46.7902 54.1698 46.8492 54.0025C46.9132 53.8352 46.9599 53.6605 46.9895 53.4785H47.4987C47.4692 53.7442 47.4028 53.9902 47.2995 54.2165C47.201 54.4429 47.0854 54.6471 46.9526 54.8291L47.7423 55.7148H47.0411L46.5983 55.2203C46.3769 55.427 46.1382 55.5721 45.8824 55.6558C45.6314 55.7345 45.3633 55.7739 45.0779 55.7739ZM45.1591 55.2941C45.351 55.2941 45.5478 55.2621 45.7495 55.1982C45.9513 55.1293 46.1309 55.0112 46.2883 54.8439L44.9155 53.2571C44.763 53.3309 44.6227 53.4219 44.4948 53.5301C44.3669 53.6384 44.2636 53.7639 44.1848 53.9066C44.111 54.0443 44.0741 54.2018 44.0741 54.3789C44.0741 54.5807 44.1258 54.7504 44.2291 54.8882C44.3324 55.026 44.4677 55.1293 44.635 55.1982C44.8023 55.2621 44.977 55.2941 45.1591 55.2941ZM45.0779 52.6888C45.2107 52.61 45.3534 52.519 45.506 52.4157C45.6585 52.3123 45.7864 52.1942 45.8898 52.0614C45.998 51.9236 46.0521 51.7736 46.0521 51.6112C46.0521 51.4685 46.0201 51.3455 45.9562 51.2421C45.8971 51.1388 45.8135 51.0601 45.7052 51.006C45.597 50.9469 45.4715 50.9174 45.3288 50.9174C45.0828 50.9174 44.8909 50.9838 44.7531 51.1167C44.6203 51.2446 44.5539 51.4242 44.5539 51.6555C44.5539 51.7982 44.5809 51.9335 44.635 52.0614C44.6941 52.1844 44.763 52.2976 44.8417 52.4009C44.9253 52.5042 45.0041 52.6002 45.0779 52.6888Z" fill="white"/>
<path d="M38.812 55.7146V51.825H39.3213L39.336 52.4745C39.4344 52.3121 39.555 52.1817 39.6977 52.0833C39.8404 51.98 39.9978 51.9037 40.1701 51.8545C40.3423 51.8053 40.5145 51.7807 40.6867 51.7807C41.0607 51.7807 41.3559 51.8595 41.5724 52.0169C41.7889 52.1744 41.9439 52.3884 42.0374 52.659C42.1308 52.9247 42.1776 53.2273 42.1776 53.5668V55.7146H41.6536V53.7366C41.6536 53.5447 41.6413 53.3602 41.6167 53.1831C41.5921 53.001 41.5429 52.8386 41.469 52.6959C41.4002 52.5532 41.2968 52.4425 41.1591 52.3638C41.0262 52.2802 40.8466 52.2383 40.6203 52.2383C40.3447 52.2383 40.1085 52.3121 39.9117 52.4598C39.7198 52.6074 39.5747 52.8042 39.4763 53.0502C39.3828 53.2962 39.336 53.5693 39.336 53.8695V55.7146H38.812Z" fill="white"/>
<path d="M35.7582 55.7589C35.3499 55.7589 35.0079 55.6753 34.7323 55.508C34.4568 55.3357 34.2501 55.0996 34.1124 54.7994C33.9795 54.4993 33.9131 54.1573 33.9131 53.7735C33.9131 53.3848 33.982 53.0428 34.1197 52.7476C34.2575 52.4475 34.4642 52.2113 34.7397 52.0391C35.0153 51.8668 35.3572 51.7807 35.7656 51.7807C36.174 51.7807 36.5135 51.8668 36.7842 52.0391C37.0597 52.2113 37.2639 52.4475 37.3968 52.7476C37.5345 53.0428 37.6034 53.3848 37.6034 53.7735C37.6034 54.1573 37.5345 54.4993 37.3968 54.7994C37.259 55.0996 37.0523 55.3357 36.7768 55.508C36.5062 55.6753 36.1666 55.7589 35.7582 55.7589ZM35.7582 55.3013C36.0633 55.3013 36.3143 55.2349 36.5111 55.102C36.7079 54.9643 36.853 54.7797 36.9465 54.5485C37.04 54.3172 37.0868 54.0589 37.0868 53.7735C37.0868 53.4881 37.04 53.2298 36.9465 52.9985C36.853 52.7673 36.7079 52.5828 36.5111 52.445C36.3143 52.3072 36.0633 52.2383 35.7582 52.2383C35.4532 52.2383 35.2022 52.3072 35.0054 52.445C34.8086 52.5828 34.6635 52.7673 34.57 52.9985C34.4814 53.2298 34.4371 53.4881 34.4371 53.7735C34.4371 54.0589 34.4814 54.3172 34.57 54.5485C34.6635 54.7797 34.8086 54.9643 35.0054 55.102C35.2022 55.2349 35.4532 55.3013 35.7582 55.3013Z" fill="white"/>
<path d="M32.1777 55.7149V51.8253H32.7017V55.7149H32.1777ZM32.436 51.1979C32.3228 51.1979 32.2318 51.1635 32.1629 51.0946C32.094 51.0257 32.0596 50.9347 32.0596 50.8215C32.0596 50.7083 32.094 50.6198 32.1629 50.5558C32.2367 50.4869 32.3277 50.4525 32.436 50.4525C32.5393 50.4525 32.6279 50.4869 32.7017 50.5558C32.7804 50.6247 32.8198 50.7133 32.8198 50.8215C32.8198 50.9347 32.7829 51.0257 32.7091 51.0946C32.6353 51.1635 32.5442 51.1979 32.436 51.1979Z" fill="white"/>
<path d="M30.7056 55.7145C30.4202 55.7145 30.189 55.6702 30.0118 55.5817C29.8347 55.4931 29.7043 55.3578 29.6207 55.1757C29.537 54.9888 29.4952 54.7526 29.4952 54.4672V52.2825H28.8457V51.8249H29.4952V50.6662H30.0192V51.8249H31.0968V52.2825H30.0192V54.4155C30.0192 54.7009 30.0734 54.915 30.1816 55.0577C30.2898 55.1954 30.5014 55.2643 30.8163 55.2643H31.0747V55.7145H30.7056Z" fill="white"/>
<path d="M25.9461 55.7589C25.7788 55.7589 25.614 55.7392 25.4516 55.6999C25.2892 55.6556 25.1416 55.5891 25.0088 55.5006C24.8759 55.4071 24.7677 55.289 24.684 55.1463C24.6053 54.9987 24.5659 54.8265 24.5659 54.6297C24.5659 54.4082 24.6053 54.2237 24.684 54.0761C24.7677 53.9285 24.8784 53.8104 25.0161 53.7218C25.1539 53.6333 25.3114 53.5718 25.4885 53.5373C25.6656 53.498 25.8526 53.4783 26.0494 53.4783H27.282C27.282 53.2372 27.2476 53.0256 27.1787 52.8435C27.1147 52.6566 27.0065 52.509 26.8539 52.4007C26.7063 52.2925 26.507 52.2383 26.2561 52.2383C26.1232 52.2383 25.9953 52.2531 25.8723 52.2826C25.7493 52.3121 25.6386 52.3613 25.5402 52.4302C25.4467 52.4942 25.3729 52.5828 25.3187 52.6959H24.7578C24.8021 52.5237 24.8759 52.3786 24.9792 52.2605C25.0875 52.1424 25.213 52.0489 25.3556 51.98C25.4983 51.9062 25.6484 51.8545 25.8059 51.825C25.9633 51.7955 26.1134 51.7807 26.2561 51.7807C26.8072 51.7807 27.2008 51.9456 27.437 52.2752C27.6732 52.6049 27.7913 53.0477 27.7913 53.6038V55.7146H27.341L27.3189 55.1832C27.2106 55.3308 27.0803 55.4465 26.9277 55.5301C26.7801 55.6137 26.6227 55.6728 26.4554 55.7072C26.2881 55.7417 26.1183 55.7589 25.9461 55.7589ZM25.983 55.3013C26.2241 55.3013 26.4431 55.2619 26.6399 55.1832C26.8367 55.0996 26.9917 54.9766 27.1049 54.8142C27.223 54.6518 27.282 54.4501 27.282 54.209V53.9137H26.4111C26.2585 53.9137 26.1036 53.9187 25.9461 53.9285C25.7886 53.9334 25.646 53.958 25.518 54.0023C25.3901 54.0417 25.2868 54.1081 25.208 54.2016C25.1293 54.2902 25.0899 54.4181 25.0899 54.5854C25.0899 54.7527 25.1318 54.8904 25.2154 54.9987C25.2991 55.102 25.4098 55.1783 25.5475 55.2275C25.6853 55.2767 25.8305 55.3013 25.983 55.3013Z" fill="white"/>
<path d="M18.2681 55.7146V51.825H18.77L18.7847 52.3786C18.8733 52.226 18.9766 52.1079 19.0947 52.0243C19.2177 51.9357 19.3481 51.8742 19.4859 51.8398C19.6236 51.8004 19.7614 51.7807 19.8992 51.7807C20.1747 51.7807 20.4011 51.8472 20.5782 51.98C20.7603 52.1129 20.8907 52.2949 20.9694 52.5262C21.0383 52.3884 21.1268 52.2629 21.2351 52.1498C21.3433 52.0366 21.4762 51.948 21.6336 51.8841C21.7911 51.8152 21.9707 51.7807 22.1724 51.7807C22.4578 51.7807 22.6891 51.8422 22.8662 51.9652C23.0433 52.0833 23.1713 52.2457 23.25 52.4524C23.3337 52.659 23.3755 52.8927 23.3755 53.1535V55.7146H22.8514V53.434C22.8514 53.2913 22.8441 53.1511 22.8293 53.0133C22.8145 52.8706 22.7801 52.7427 22.726 52.6295C22.6719 52.5114 22.5907 52.4179 22.4824 52.349C22.3791 52.2752 22.2364 52.2383 22.0543 52.2383C21.8772 52.2383 21.7271 52.2802 21.6041 52.3638C21.486 52.4425 21.3876 52.5508 21.3089 52.6886C21.2351 52.8214 21.181 52.969 21.1465 53.1314C21.117 53.2888 21.1022 53.4438 21.1022 53.5964V55.7146H20.5782V53.4857C20.5782 53.3528 20.5684 53.215 20.5487 53.0723C20.5339 52.9247 20.5019 52.787 20.4527 52.659C20.4035 52.5311 20.3248 52.4302 20.2166 52.3564C20.1083 52.2777 19.9656 52.2383 19.7885 52.2383C19.5326 52.2383 19.3309 52.3097 19.1833 52.4524C19.0406 52.5901 18.9397 52.7673 18.8807 52.9838C18.8216 53.1954 18.7921 53.4119 18.7921 53.6333V55.7146H18.2681Z" fill="white"/>
<path d="M15.2138 55.7589C14.8054 55.7589 14.4634 55.6753 14.1879 55.508C13.9124 55.3357 13.7057 55.0996 13.5679 54.7994C13.4351 54.4993 13.3687 54.1573 13.3687 53.7735C13.3687 53.3848 13.4375 53.0428 13.5753 52.7476C13.7131 52.4475 13.9197 52.2113 14.1953 52.0391C14.4708 51.8668 14.8128 51.7807 15.2212 51.7807C15.6296 51.7807 15.9691 51.8668 16.2397 52.0391C16.5153 52.2113 16.7195 52.4475 16.8523 52.7476C16.9901 53.0428 17.059 53.3848 17.059 53.7735C17.059 54.1573 16.9901 54.4993 16.8523 54.7994C16.7145 55.0996 16.5079 55.3357 16.2323 55.508C15.9617 55.6753 15.6222 55.7589 15.2138 55.7589ZM15.2138 55.3013C15.5189 55.3013 15.7698 55.2349 15.9666 55.102C16.1635 54.9643 16.3086 54.7797 16.4021 54.5485C16.4956 54.3172 16.5423 54.0589 16.5423 53.7735C16.5423 53.4881 16.4956 53.2298 16.4021 52.9985C16.3086 52.7673 16.1635 52.5828 15.9666 52.445C15.7698 52.3072 15.5189 52.2383 15.2138 52.2383C14.9087 52.2383 14.6578 52.3072 14.461 52.445C14.2642 52.5828 14.119 52.7673 14.0255 52.9985C13.937 53.2298 13.8927 53.4881 13.8927 53.7735C13.8927 54.0589 13.937 54.3172 14.0255 54.5485C14.119 54.7797 14.2642 54.9643 14.461 55.102C14.6578 55.2349 14.9087 55.3013 15.2138 55.3013Z" fill="white"/>
<path d="M11.7462 55.7588C11.3427 55.7588 11.0598 55.6506 10.8974 55.4341C10.7399 55.2126 10.6612 54.9027 10.6612 54.5041V52.2825H10.0117V51.8249H10.6612V50.6588H11.1852V51.8249H12.4252V52.2825H11.1852V54.4229C11.1852 54.5754 11.1975 54.7181 11.2221 54.851C11.2517 54.9838 11.3107 55.0921 11.3993 55.1757C11.4878 55.2594 11.6232 55.3012 11.8052 55.3012C11.9085 55.3012 12.0045 55.284 12.0931 55.2495C12.1866 55.2151 12.2653 55.1733 12.3292 55.1241L12.5433 55.5079C12.4695 55.5669 12.3883 55.6161 12.2997 55.6555C12.2161 55.6948 12.1275 55.7219 12.034 55.7367C11.9454 55.7514 11.8495 55.7588 11.7462 55.7588Z" fill="white"/>
<path d="M7.32291 55.7591C6.78166 55.7591 6.37572 55.6139 6.1051 55.3236C5.83939 55.0333 5.70654 54.6003 5.70654 54.0246V51.8252H6.23057V54.0098C6.23057 54.2706 6.26747 54.4994 6.34128 54.6962C6.42001 54.8881 6.5381 55.0382 6.69555 55.1465C6.85792 55.2498 7.06704 55.3015 7.32291 55.3015C7.58369 55.3015 7.79527 55.2498 7.95764 55.1465C8.12494 55.0431 8.24549 54.8955 8.31929 54.7036C8.3931 54.5068 8.43 54.2755 8.43 54.0098V51.8252H8.95403V54.0246C8.95403 54.6003 8.81872 55.0333 8.54809 55.3236C8.27747 55.6139 7.86907 55.7591 7.32291 55.7591Z" fill="white"/>
<path d="M0.0947266 55.7145L2.07274 50.4964H2.80342L4.78144 55.7145H4.19837L3.77029 54.5631H1.10588L0.677798 55.7145H0.0947266ZM1.28301 54.0834H3.58577L2.43439 50.9909L1.28301 54.0834Z" fill="white"/>
</g>
<g clip-path="url(#clip1_4752_8546)">
<path d="M122.763 14.3077L125.627 12.365L128.972 14.4241L126.122 16.3563L122.763 14.3077Z" fill="#1BC1D7"/>
<path d="M117.803 11.2281L120.604 9.28641L123.976 11.3416L121.103 13.2901L117.803 11.2281Z" fill="#1BC1D7"/>
<path d="M115.608 6.22525L113.238 7.83224L116.012 9.57179L118.413 7.94382L115.608 6.22525Z" fill="#1BC1D7"/>
<path d="M110.446 3.06253L112.707 4.44826L110.581 5.89026L108.312 4.5093L110.446 3.06253Z" fill="#1BC1D7"/>
<path d="M104.951 0.000305176L107.151 1.34979L104.951 2.84234L102.762 1.48427L104.951 0.000305176Z" fill="#1BC1D7"/>
<path d="M117.902 17.6048L120.687 15.7155L123.657 17.5352L120.78 19.4283L117.902 17.6048Z" fill="#1BC1D7"/>
<path d="M115.664 12.6369L113.238 14.282L115.931 16.0092L118.413 14.323L115.664 12.6369Z" fill="#1BC1D7"/>
<path d="M110.673 9.57205L108.424 11.098L110.673 12.5295L112.957 10.9797L110.673 9.57205Z" fill="#1BC1D7"/>
<path d="M103.114 8.0353L105.141 6.66006L107.151 7.89892L105.132 9.27416L103.114 8.0353Z" fill="#1BC1D7"/>
<path d="M98.1016 4.64572L99.6141 3.61954L101.038 4.47596L99.5693 5.57558L98.1016 4.64572Z" fill="#1BC1D7"/>
<path d="M113.472 20.5987L115.904 18.9602L118.412 20.5157L115.942 22.2419L113.472 20.5987Z" fill="#1BC1D7"/>
<path d="M110.578 16.2059L108.545 17.6412L110.578 18.8762L112.612 17.48L110.578 16.2059Z" fill="#1BC1D7"/>
<path d="M103.114 14.5558L104.9 13.2902L106.674 14.5558L104.894 15.8185L103.114 14.5558Z" fill="#1BC1D7"/>
<path d="M98.1016 11.2882L99.5178 10.3031L100.933 11.2882L99.5178 12.2543L98.1016 11.2882Z" fill="#1BC1D7"/>
<path d="M92.9087 8.16767L94.2 7.29218L95.4169 7.9674L94.1628 8.86769L92.9087 8.16767Z" fill="#1BC1D7"/>
<path d="M103.114 20.9904L105 19.6542L106.951 20.916L105.033 22.3408L103.114 20.9904Z" fill="#1BC1D7"/>
<path d="M97.9697 17.687L99.5338 16.6608L101.097 17.6498L99.5338 18.7132L97.9697 17.687Z" fill="#1BC1D7"/>
<path d="M98.1016 24.1833L99.6656 23.1571L101.23 24.1461L99.6656 25.2094L98.1016 24.1833Z" fill="#1BC1D7"/>
<path d="M92.9312 14.8031L94.067 14.0143L95.3364 14.8803L94.2282 15.6509L92.9312 14.8031Z" fill="#1BC1D7"/>
<path d="M93.1841 21.0592L94.3199 20.2705L95.5903 21.1364L94.4811 21.908L93.1841 21.0592Z" fill="#1BC1D7"/>
<path d="M87.7373 11.6452L88.67 10.9976L89.7115 11.7081L88.8016 12.3414L87.7373 11.6452Z" fill="#1BC1D7"/>
<path d="M87.9282 18.1887L88.8609 17.5421L89.9024 18.2526L88.9926 18.8849L87.9282 18.1887Z" fill="#1BC1D7"/>
<path d="M82.6611 15.0117L83.4661 14.4529L84.3654 15.0661L83.5805 15.6126L82.6611 15.0117Z" fill="#1BC1D7"/>
<path d="M104.25 26.3933L106.37 27.6932V30.9835L104.25 29.6846V26.3933Z" fill="#1BC1D7"/>
<path d="M104.25 31.819L106.37 33.1179V36.4092L104.25 35.1102V31.819Z" fill="#1BC1D7"/>
<path d="M104.25 37.2436L106.37 38.5435V41.8347L104.25 40.5348V37.2436Z" fill="#1BC1D7"/>
<path d="M104.25 42.6693L106.37 43.9682V47.2594L104.25 45.9605V42.6693Z" fill="#1BC1D7"/>
<path d="M104.25 48.0949L106.37 49.3938V52.6851L104.25 51.3852V48.0949Z" fill="#1BC1D7"/>
<path d="M108.113 28.7843L110.234 30.0832V33.3744L108.113 32.0755V28.7843Z" fill="#1BC1D7"/>
<path d="M108.113 34.2089L110.234 35.5088V38.8L108.113 37.5001V34.2089Z" fill="#1BC1D7"/>
<path d="M108.113 39.6346L110.234 40.9335V44.2247L108.113 42.9258V39.6346Z" fill="#1BC1D7"/>
<path d="M108.113 45.0602L110.234 46.3592V49.6504L108.113 48.3505V45.0602Z" fill="#1BC1D7"/>
<path d="M108.113 50.4848L110.234 51.7847V55.075L108.113 53.776V50.4848Z" fill="#1BC1D7"/>
<path d="M111.514 55.1702L113.634 53.8712V50.58L111.514 51.8799V55.1702Z" fill="#1BC1D7"/>
<path d="M111.514 49.7456L113.634 48.4457V45.1554L111.514 46.4544V49.7456Z" fill="#1BC1D7"/>
<path d="M111.514 44.3199L113.634 43.021V39.7298L111.514 41.0287V44.3199Z" fill="#1BC1D7"/>
<path d="M111.514 38.8952L113.634 37.5953V34.3041L111.514 35.604V38.8952Z" fill="#1BC1D7"/>
<path d="M111.514 33.4697L113.634 32.1707V28.8795L111.514 30.1784V33.4697Z" fill="#1BC1D7"/>
<path d="M115.209 52.6851L117.329 51.3852V48.0949L115.209 49.3938V52.6851Z" fill="#1BC1D7"/>
<path d="M115.209 47.2594L117.329 45.9605V42.6693L115.209 43.9682V47.2594Z" fill="#1BC1D7"/>
<path d="M115.209 41.8347L117.329 40.5348V37.2436L115.209 38.5435V41.8347Z" fill="#1BC1D7"/>
<path d="M115.209 36.4092L117.329 35.1102V31.819L115.209 33.1179V36.4092Z" fill="#1BC1D7"/>
<path d="M115.209 30.9835L117.329 29.6846V26.3933L115.209 27.6932V30.9835Z" fill="#1BC1D7"/>
<path d="M120.269 48.9576L121.329 48.3081V46.663L120.269 47.3125V48.9576Z" fill="#1BC1D7"/>
<path d="M120.095 43.7182L121.329 42.9619V41.0469L120.095 41.8032V43.7182Z" fill="#1BC1D7"/>
<path d="M119.893 38.158L121.329 37.2786V35.0489L119.893 35.9292V38.158Z" fill="#1BC1D7"/>
<path d="M119.89 32.1667L121.329 31.2855V29.0519L119.89 29.9332V32.1667Z" fill="#1BC1D7"/>
<path d="M119.615 27.2183L121.329 26.1683V23.5094L119.615 24.5584V27.2183Z" fill="#1BC1D7"/>
<path d="M124.694 45.8593L125.755 45.2089V43.5638L124.694 44.2132V45.8593Z" fill="#1BC1D7"/>
<path d="M124.521 40.6185L125.755 39.8632V37.9482L124.521 38.7035V40.6185Z" fill="#1BC1D7"/>
<path d="M124.319 35.2502L125.755 34.3699V32.1411L124.319 33.0214V35.2502Z" fill="#1BC1D7"/>
<path d="M124.315 29.2589L125.755 28.3767V26.1431L124.315 27.0253V29.2589Z" fill="#1BC1D7"/>
<path d="M124.041 24.3095L125.755 23.2595V20.6006L124.041 21.6506V24.3095Z" fill="#1BC1D7"/>
<path d="M128.939 42.8293L130 42.1789V40.5338L128.939 41.1833V42.8293Z" fill="#1BC1D7"/>
<path d="M128.766 37.6838L130 36.9285V35.0135L128.766 35.7688V37.6838Z" fill="#1BC1D7"/>
<path d="M128.564 32.3155L130 31.4352V29.2064L128.564 30.0867V32.3155Z" fill="#1BC1D7"/>
<path d="M128.561 26.3247L130 25.4425V23.2089L128.561 24.0911V26.3247Z" fill="#1BC1D7"/>
<path d="M128.286 21.3748L130 20.3248V17.6658L128.286 18.7159V21.3748Z" fill="#1BC1D7"/>
<path d="M106.286 23.6761V23.1402H109.103V23.6761H108.012V26.6708H107.378V23.6761H106.287H106.286Z" fill="white"/>
<path d="M109.644 23.14H110.427L111.475 25.6988H111.516L112.564 23.14H113.347V26.6707H112.733V24.2454H112.701L111.725 26.6611H111.266L110.291 24.2406H110.258V26.6716H109.644V23.141V23.14Z" fill="white"/>
</g>
<defs>
<clipPath id="clip0_4752_8546">
<rect width="102.204" height="29.6172" fill="white" transform="translate(0 27.5537)"/>
</clipPath>
<clipPath id="clip1_4752_8546">
<rect width="47.3389" height="55.1698" fill="white" transform="translate(82.6611 0.000152588)"/>
</clipPath>
</defs>
</svg>
