<svg width="180" height="80" viewBox="0 0 180 80" fill="none" xmlns="http://www.w3.org/2000/svg">
<g clip-path="url(#clip0_5527_271)">
<path d="M81.7471 65.4971L88.9184 38.1514H93.4624L98.8347 54.0169C98.8429 54.0361 110.588 38.1514 110.588 38.1514H114.826L113.732 65.4971H108.948L109.629 46.3589L97.7384 61.9374C96.9209 60.1849 96.1663 58.8999 95.4774 57.0954C94.5122 54.5665 91.5048 46.6105 91.5048 46.6105L86.3074 65.4971C86.2774 65.6092 86.1762 65.4971 86.0614 65.4971H81.7471Z" fill="white" fill-opacity="0.5"/>
<path d="M27.0669 65.4971H22.2823L20.3685 58.5855H8.83091L4.78455 65.4971H0L14.5423 38.1514H20.3712C20.3712 38.1514 21.093 40.828 21.2461 41.3803C23.1244 48.2153 27.1243 65.0269 27.0669 65.4971ZM19.4116 54.561L16.8143 43.6304L11.2095 54.561H19.4116Z" fill="white" fill-opacity="0.5"/>
<path d="M66.8473 38.1514L66.7106 42.2606C66.7106 42.2606 54.5278 41.8833 53.3221 43.2257C51.977 44.3139 51.7036 46.9495 53.0596 48.1142C54.7192 49.5386 60.1954 50.2221 62.6971 51.8735C66.7598 54.5555 65.0237 61.582 61.4285 63.9114C60.6848 64.3926 58.6206 65.4971 57.2728 65.4971H44.2861L44.8603 61.4261C45.3223 61.0352 55.2004 61.6121 56.9748 61.3742C59.7799 60.9942 61.2344 57.0572 59.3124 55.2582C57.3903 53.4592 50.5361 53.4893 48.2669 50.4463C46.5472 48.1415 47.1487 43.2394 49.098 41.1916C50.4814 39.7371 52.5074 38.1514 56.4526 38.1514H66.8419H66.8473Z" fill="white" fill-opacity="0.5"/>
<path d="M141.39 38.1514L141.253 42.2551C141.253 42.2551 129.07 41.8778 127.865 43.2203C126.519 44.3084 126.246 46.944 127.602 48.1087C129.262 49.5331 134.738 50.2166 137.24 51.868C141.302 54.5501 139.566 61.5765 135.971 63.9059C135.227 64.3871 133.163 65.4971 131.815 65.4971H118.829L119.403 61.4207C119.34 61.4207 129.743 61.6066 131.517 61.3687C134.322 60.9887 135.777 57.0517 133.855 55.2527C131.886 53.41 125.079 53.4838 122.809 50.4408C121.09 48.136 121.691 43.2339 123.641 41.1861C125.024 39.7316 127.05 38.1514 130.995 38.1514H141.384H141.39Z" fill="white" fill-opacity="0.5"/>
<path d="M37.5468 65.4971H32.7622L37.1367 38.1514H41.9212L37.5468 65.4971Z" fill="white" fill-opacity="0.5"/>
<path d="M75.4315 65.5225H70.647L75.0214 38.1768H79.806L75.4315 65.5225Z" fill="white" fill-opacity="0.5"/>
<path d="M125.928 77.1442V71.7586H126.633L126.654 72.6579C126.79 72.4331 126.957 72.2525 127.155 72.1163C127.352 71.9732 127.57 71.8676 127.809 71.7995C128.047 71.7313 128.285 71.6973 128.524 71.6973C129.042 71.6973 129.45 71.8063 129.75 72.0243C130.05 72.2423 130.265 72.5387 130.394 72.9134C130.524 73.2813 130.588 73.7003 130.588 74.1704V77.1442H129.863V74.4054C129.863 74.1397 129.846 73.8842 129.812 73.6389C129.778 73.3869 129.709 73.162 129.607 72.9645C129.512 72.7669 129.369 72.6136 129.178 72.5046C128.994 72.3888 128.745 72.3309 128.432 72.3309C128.05 72.3309 127.723 72.4331 127.451 72.6374C127.185 72.8418 126.984 73.1144 126.848 73.455C126.719 73.7956 126.654 74.1738 126.654 74.5893V77.1442H125.928Z" fill="white" fill-opacity="0.5"/>
<path d="M121.699 77.2055C121.134 77.2055 120.66 77.0897 120.279 76.858C119.897 76.6196 119.611 76.2926 119.42 75.877C119.237 75.4614 119.145 74.9879 119.145 74.4565C119.145 73.9183 119.24 73.4448 119.431 73.036C119.621 72.6204 119.908 72.2934 120.289 72.0549C120.671 71.8165 121.144 71.6973 121.71 71.6973C122.275 71.6973 122.745 71.8165 123.12 72.0549C123.501 72.2934 123.784 72.6204 123.968 73.036C124.159 73.4448 124.254 73.9183 124.254 74.4565C124.254 74.9879 124.159 75.4614 123.968 75.877C123.777 76.2926 123.491 76.6196 123.11 76.858C122.735 77.0897 122.265 77.2055 121.699 77.2055ZM121.699 76.5719C122.122 76.5719 122.469 76.4799 122.742 76.296C123.014 76.1052 123.215 75.8497 123.345 75.5295C123.474 75.2093 123.539 74.8516 123.539 74.4565C123.539 74.0613 123.474 73.7037 123.345 73.3835C123.215 73.0633 123.014 72.8078 122.742 72.617C122.469 72.4262 122.122 72.3309 121.699 72.3309C121.277 72.3309 120.93 72.4262 120.657 72.617C120.384 72.8078 120.183 73.0633 120.054 73.3835C119.931 73.7037 119.87 74.0613 119.87 74.4565C119.87 74.8516 119.931 75.2093 120.054 75.5295C120.183 75.8497 120.384 76.1052 120.657 76.296C120.93 76.4799 121.277 76.5719 121.699 76.5719Z" fill="white" fill-opacity="0.5"/>
<path d="M116.742 77.1438V71.7582H117.467V77.1438H116.742ZM117.099 70.8896C116.943 70.8896 116.817 70.8419 116.721 70.7465C116.626 70.6511 116.578 70.5251 116.578 70.3684C116.578 70.2117 116.626 70.0891 116.721 70.0005C116.823 69.9051 116.949 69.8574 117.099 69.8574C117.242 69.8574 117.365 69.9051 117.467 70.0005C117.576 70.0959 117.631 70.2185 117.631 70.3684C117.631 70.5251 117.58 70.6511 117.477 70.7465C117.375 70.8419 117.249 70.8896 117.099 70.8896Z" fill="white" fill-opacity="0.5"/>
<path d="M114.704 77.1443C114.309 77.1443 113.989 77.083 113.744 76.9604C113.498 76.8378 113.318 76.6504 113.202 76.3983C113.086 76.1394 113.028 75.8124 113.028 75.4173V72.3923H112.129V71.7587H113.028V70.1543H113.754V71.7587H115.246V72.3923H113.754V75.3457C113.754 75.7409 113.829 76.0372 113.979 76.2348C114.128 76.4256 114.421 76.521 114.857 76.521H115.215V77.1443H114.704Z" fill="white" fill-opacity="0.5"/>
<path d="M108.114 77.2055C107.883 77.2055 107.654 77.1782 107.429 77.1237C107.205 77.0624 107 76.9705 106.816 76.8478C106.632 76.7184 106.482 76.5549 106.367 76.3573C106.258 76.1529 106.203 75.9145 106.203 75.6419C106.203 75.3354 106.258 75.0799 106.367 74.8755C106.482 74.6711 106.636 74.5076 106.827 74.385C107.017 74.2623 107.235 74.1772 107.481 74.1295C107.726 74.075 107.985 74.0477 108.257 74.0477H109.964C109.964 73.7139 109.916 73.4209 109.821 73.1689C109.732 72.91 109.582 72.7056 109.371 72.5557C109.167 72.4058 108.891 72.3309 108.543 72.3309C108.359 72.3309 108.182 72.3513 108.012 72.3922C107.842 72.4331 107.688 72.5012 107.552 72.5966C107.423 72.6851 107.32 72.8078 107.246 72.9645H106.469C106.53 72.726 106.632 72.525 106.775 72.3615C106.925 72.198 107.099 72.0686 107.297 71.9732C107.494 71.871 107.702 71.7995 107.92 71.7586C108.138 71.7177 108.346 71.6973 108.543 71.6973C109.306 71.6973 109.851 71.9255 110.178 72.382C110.505 72.8384 110.669 73.4516 110.669 74.2214V77.1442H110.046L110.015 76.4084C109.865 76.6128 109.685 76.7729 109.473 76.8887C109.269 77.0045 109.051 77.0863 108.819 77.134C108.588 77.1817 108.353 77.2055 108.114 77.2055ZM108.165 76.5719C108.499 76.5719 108.802 76.5174 109.075 76.4084C109.347 76.2926 109.562 76.1222 109.719 75.8974C109.882 75.6726 109.964 75.3933 109.964 75.0594V74.6507H108.758C108.547 74.6507 108.332 74.6575 108.114 74.6711C107.896 74.6779 107.699 74.712 107.521 74.7733C107.344 74.8278 107.201 74.9198 107.092 75.0492C106.983 75.1718 106.929 75.349 106.929 75.5806C106.929 75.8123 106.987 76.003 107.102 76.1529C107.218 76.296 107.372 76.4016 107.562 76.4697C107.753 76.5378 107.954 76.5719 108.165 76.5719Z" fill="white" fill-opacity="0.5"/>
<path d="M100.422 77.1434V76.5098L103.825 72.3914H100.442V71.7578H104.724V72.3812L101.291 76.52H104.724V77.1434H100.422Z" fill="white" fill-opacity="0.5"/>
<path d="M98.019 77.1438V71.7582H98.7445V77.1438H98.019ZM98.3767 70.8896C98.22 70.8896 98.0939 70.8419 97.9985 70.7465C97.9032 70.6511 97.8555 70.5251 97.8555 70.3684C97.8555 70.2117 97.9032 70.0891 97.9985 70.0005C98.1007 69.9051 98.2268 69.8574 98.3767 69.8574C98.5197 69.8574 98.6424 69.9051 98.7445 70.0005C98.8536 70.0959 98.9081 70.2185 98.9081 70.3684C98.9081 70.5251 98.857 70.6511 98.7548 70.7465C98.6526 70.8419 98.5265 70.8896 98.3767 70.8896Z" fill="white" fill-opacity="0.5"/>
<path d="M89.104 77.1442V71.7586H89.7989L89.8194 72.525C89.942 72.3138 90.0851 72.1503 90.2486 72.0345C90.4189 71.9119 90.5994 71.8267 90.7902 71.779C90.981 71.7245 91.1717 71.6973 91.3625 71.6973C91.744 71.6973 92.0574 71.7892 92.3027 71.9732C92.5547 72.1571 92.7353 72.4092 92.8443 72.7294C92.9397 72.5387 93.0623 72.3649 93.2122 72.2082C93.3621 72.0515 93.546 71.9289 93.764 71.8403C93.982 71.745 94.2307 71.6973 94.51 71.6973C94.9052 71.6973 95.2254 71.7824 95.4707 71.9528C95.7159 72.1163 95.8931 72.3411 96.0021 72.6272C96.1179 72.9134 96.1758 73.237 96.1758 73.5981V77.1442H95.4502V73.9864C95.4502 73.7888 95.44 73.5947 95.4196 73.4039C95.3991 73.2063 95.3514 73.0292 95.2765 72.8725C95.2016 72.709 95.0891 72.5795 94.9393 72.4842C94.7962 72.382 94.5986 72.3309 94.3465 72.3309C94.1013 72.3309 93.8935 72.3888 93.7232 72.5046C93.5596 72.6136 93.4234 72.7635 93.3144 72.9542C93.2122 73.1382 93.1373 73.3426 93.0896 73.5674C93.0487 73.7854 93.0282 74 93.0282 74.2112V77.1442H92.3027V74.0579C92.3027 73.874 92.289 73.6832 92.2618 73.4857C92.2414 73.2813 92.1971 73.0905 92.1289 72.9134C92.0608 72.7362 91.9518 72.5966 91.8019 72.4944C91.652 72.3854 91.4545 72.3309 91.2092 72.3309C90.8549 72.3309 90.5756 72.4297 90.3712 72.6272C90.1736 72.818 90.034 73.0633 89.9522 73.363C89.8705 73.656 89.8296 73.9557 89.8296 74.2623V77.1442H89.104Z" fill="white" fill-opacity="0.5"/>
<path d="M86.497 77.1438V71.7582H87.2226V77.1438H86.497ZM86.8547 70.8896C86.698 70.8896 86.5719 70.8419 86.4766 70.7465C86.3812 70.6511 86.3335 70.5251 86.3335 70.3684C86.3335 70.2117 86.3812 70.0891 86.4766 70.0005C86.5788 69.9051 86.7048 69.8574 86.8547 69.8574C86.9978 69.8574 87.1204 69.9051 87.2226 70.0005C87.3316 70.0959 87.3861 70.2185 87.3861 70.3684C87.3861 70.5251 87.335 70.6511 87.2328 70.7465C87.1306 70.8419 87.0046 70.8896 86.8547 70.8896Z" fill="white" fill-opacity="0.5"/>
<path d="M84.4596 77.1443C84.0644 77.1443 83.7442 77.083 83.4989 76.9604C83.2537 76.8378 83.0731 76.6504 82.9573 76.3983C82.8415 76.1394 82.7836 75.8124 82.7836 75.4173V72.3923H81.8843V71.7587H82.7836V70.1543H83.5091V71.7587H85.0012V72.3923H83.5091V75.3457C83.5091 75.7409 83.5841 76.0372 83.734 76.2348C83.8839 76.4256 84.1768 76.521 84.6128 76.521H84.9705V77.1443H84.4596Z" fill="white" fill-opacity="0.5"/>
<path d="M75.813 79.137V71.7586H76.5079L76.5386 72.6477C76.7498 72.3275 77.0155 72.089 77.3357 71.9323C77.6627 71.7756 78.0272 71.6973 78.4291 71.6973C78.9742 71.6973 79.4204 71.8199 79.7679 72.0652C80.1153 72.3104 80.3742 72.6443 80.5446 73.0667C80.7149 73.4822 80.8 73.9489 80.8 74.4667C80.8 74.9981 80.7115 75.4716 80.5343 75.8872C80.364 76.3028 80.0983 76.6264 79.7372 76.858C79.383 77.0897 78.9333 77.2055 78.3883 77.2055C78.1362 77.2055 77.8943 77.1782 77.6627 77.1237C77.4311 77.0692 77.2199 76.9807 77.0291 76.858C76.8383 76.7286 76.6748 76.5617 76.5386 76.3573V79.137H75.813ZM78.3576 76.5719C78.78 76.5719 79.1138 76.4765 79.3591 76.2858C79.6112 76.0882 79.7917 75.8293 79.9007 75.5091C80.0166 75.1889 80.0745 74.838 80.0745 74.4565C80.0745 74.0682 80.0166 73.7139 79.9007 73.3937C79.7849 73.0735 79.5976 72.818 79.3387 72.6272C79.0798 72.4297 78.7391 72.3309 78.3167 72.3309C77.9284 72.3309 77.598 72.4297 77.3255 72.6272C77.0598 72.8248 76.8588 73.0871 76.7225 73.4141C76.5863 73.7411 76.5181 74.092 76.5181 74.4667C76.5181 74.8687 76.5828 75.2298 76.7123 75.55C76.8486 75.8634 77.0529 76.112 77.3255 76.296C77.6048 76.4799 77.9488 76.5719 78.3576 76.5719Z" fill="white" fill-opacity="0.5"/>
<path d="M70.7454 77.2255C69.9959 77.2255 69.3692 77.0654 68.865 76.7452C68.3677 76.425 67.9895 75.9856 67.7307 75.4269C67.4786 74.8682 67.3525 74.2381 67.3525 73.5363C67.3525 72.8278 67.4786 72.1942 67.7307 71.6355C67.9895 71.0769 68.3677 70.6374 68.865 70.3172C69.3692 69.997 69.9959 69.8369 70.7454 69.8369C71.4948 69.8369 72.1182 69.997 72.6155 70.3172C73.1129 70.6374 73.4876 71.0769 73.7396 71.6355C73.9985 72.1942 74.128 72.8278 74.128 73.5363C74.128 74.2381 73.9985 74.8682 73.7396 75.4269C73.4876 75.9856 73.1129 76.425 72.6155 76.7452C72.1182 77.0654 71.4948 77.2255 70.7454 77.2255ZM70.7454 76.5613C71.3449 76.5613 71.8388 76.425 72.2272 76.1525C72.6155 75.88 72.9017 75.5155 73.0856 75.059C73.2764 74.5957 73.3717 74.0882 73.3717 73.5363C73.3717 73.1207 73.3172 72.729 73.2082 72.3611C73.106 71.9932 72.9459 71.6696 72.7279 71.3903C72.5099 71.1109 72.234 70.8929 71.9002 70.7362C71.5731 70.5795 71.1882 70.5012 70.7454 70.5012C70.1526 70.5012 69.6587 70.6408 69.2636 70.9202C68.8752 71.1927 68.5823 71.5606 68.3847 72.0239C68.1939 72.4803 68.0986 72.9845 68.0986 73.5363C68.0986 74.0814 68.1939 74.5855 68.3847 75.0488C68.5755 75.5053 68.8684 75.8731 69.2636 76.1525C69.6587 76.425 70.1526 76.5613 70.7454 76.5613Z" fill="white" fill-opacity="0.5"/>
<path d="M62.4155 77.2255C62.1294 77.2255 61.8535 77.1846 61.5878 77.1029C61.3289 77.0211 61.0972 76.9019 60.8928 76.7452C60.6953 76.5885 60.5386 76.3909 60.4228 76.1525C60.3069 75.914 60.249 75.6347 60.249 75.3145C60.249 74.9943 60.3137 74.7115 60.4432 74.4663C60.5726 74.2142 60.7532 73.9894 60.9848 73.7918C61.2233 73.5874 61.4958 73.4069 61.8024 73.2502C61.5435 73.0049 61.3391 72.7426 61.1892 72.4633C61.0393 72.1771 60.9644 71.8808 60.9644 71.5742C60.9644 71.2472 61.0325 70.9542 61.1688 70.6953C61.3118 70.4296 61.5196 70.2218 61.7921 70.072C62.0647 69.9153 62.4053 69.8369 62.8141 69.8369C63.1343 69.8369 63.417 69.8982 63.6623 70.0209C63.9076 70.1435 64.0983 70.3206 64.2346 70.5523C64.3776 70.7839 64.4492 71.0632 64.4492 71.3903C64.4492 71.6832 64.3776 71.9523 64.2346 72.1976C64.0915 72.4429 63.8973 72.6677 63.6521 72.8721C63.4068 73.0696 63.1309 73.2434 62.8243 73.3933L64.5309 75.4065C64.674 75.2157 64.7864 75.0045 64.8682 74.7729C64.9567 74.5412 65.0215 74.2994 65.0623 74.0473H65.7675C65.7266 74.4152 65.6346 74.7558 65.4916 75.0692C65.3553 75.3826 65.1952 75.6654 65.0112 75.9174L66.1047 77.1438H65.1339L64.5207 76.4591C64.2141 76.7452 63.8837 76.9462 63.5294 77.062C63.182 77.171 62.8107 77.2255 62.4155 77.2255ZM62.5279 76.5613C62.7936 76.5613 63.0662 76.517 63.3455 76.4284C63.6248 76.333 63.8735 76.1695 64.0915 75.9379L62.1907 73.7407C61.9795 73.8429 61.7853 73.9689 61.6082 74.1188C61.4311 74.2687 61.288 74.4424 61.179 74.64C61.0768 74.8308 61.0257 75.0488 61.0257 75.2941C61.0257 75.5734 61.0972 75.8084 61.2403 75.9992C61.3834 76.1899 61.5707 76.333 61.8024 76.4284C62.034 76.517 62.2759 76.5613 62.5279 76.5613ZM62.4155 72.9538C62.5995 72.8448 62.7971 72.7188 63.0083 72.5757C63.2195 72.4326 63.3966 72.2691 63.5397 72.0852C63.6895 71.8944 63.7645 71.6866 63.7645 71.4618C63.7645 71.2642 63.7202 71.0939 63.6316 70.9508C63.5499 70.8078 63.4341 70.6987 63.2842 70.6238C63.1343 70.542 62.9606 70.5012 62.763 70.5012C62.4223 70.5012 62.1566 70.5931 61.9659 70.7771C61.7819 70.9542 61.69 71.2029 61.69 71.5231C61.69 71.7207 61.7274 71.908 61.8024 72.0852C61.8841 72.2555 61.9795 72.4122 62.0885 72.5553C62.2043 72.6983 62.3133 72.8312 62.4155 72.9538Z" fill="white" fill-opacity="0.5"/>
<path d="M53.7397 77.1442V71.7586H54.4449L54.4653 72.6579C54.6016 72.4331 54.7685 72.2525 54.9661 72.1163C55.1636 71.9732 55.3817 71.8676 55.6201 71.7995C55.8586 71.7313 56.097 71.6973 56.3355 71.6973C56.8532 71.6973 57.262 71.8063 57.5618 72.0243C57.8616 72.2423 58.0762 72.5387 58.2056 72.9134C58.3351 73.2813 58.3998 73.7003 58.3998 74.1704V77.1442H57.6742V74.4054C57.6742 74.1397 57.6572 73.8842 57.6231 73.6389C57.589 73.3869 57.5209 73.162 57.4187 72.9645C57.3233 72.7669 57.1803 72.6136 56.9895 72.5046C56.8056 72.3888 56.5569 72.3309 56.2435 72.3309C55.862 72.3309 55.535 72.4331 55.2624 72.6374C54.9967 72.8418 54.7957 73.1144 54.6595 73.455C54.53 73.7956 54.4653 74.1738 54.4653 74.5893V77.1442H53.7397Z" fill="white" fill-opacity="0.5"/>
<path d="M49.5114 77.2055C48.9459 77.2055 48.4724 77.0897 48.0909 76.858C47.7094 76.6196 47.4232 76.2926 47.2325 75.877C47.0485 75.4614 46.9565 74.9879 46.9565 74.4565C46.9565 73.9183 47.0519 73.4448 47.2427 73.036C47.4334 72.6204 47.7196 72.2934 48.1011 72.0549C48.4826 71.8165 48.9561 71.6973 49.5216 71.6973C50.0871 71.6973 50.5572 71.8165 50.9319 72.0549C51.3134 72.2934 51.5961 72.6204 51.7801 73.036C51.9708 73.4448 52.0662 73.9183 52.0662 74.4565C52.0662 74.9879 51.9708 75.4614 51.7801 75.877C51.5893 76.2926 51.3032 76.6196 50.9217 76.858C50.5469 77.0897 50.0769 77.2055 49.5114 77.2055ZM49.5114 76.5719C49.9338 76.5719 50.2812 76.4799 50.5538 76.296C50.8263 76.1052 51.0273 75.8497 51.1567 75.5295C51.2861 75.2093 51.3509 74.8516 51.3509 74.4565C51.3509 74.0613 51.2861 73.7037 51.1567 73.3835C51.0273 73.0633 50.8263 72.8078 50.5538 72.617C50.2812 72.4262 49.9338 72.3309 49.5114 72.3309C49.089 72.3309 48.7415 72.4262 48.469 72.617C48.1965 72.8078 47.9955 73.0633 47.8661 73.3835C47.7434 73.7037 47.6821 74.0613 47.6821 74.4565C47.6821 74.8516 47.7434 75.2093 47.8661 75.5295C47.9955 75.8497 48.1965 76.1052 48.469 76.296C48.7415 76.4799 49.089 76.5719 49.5114 76.5719Z" fill="white" fill-opacity="0.5"/>
<path d="M44.5536 77.1438V71.7582H45.2792V77.1438H44.5536ZM44.9113 70.8896C44.7546 70.8896 44.6286 70.8419 44.5332 70.7465C44.4378 70.6511 44.3901 70.5251 44.3901 70.3684C44.3901 70.2117 44.4378 70.0891 44.5332 70.0005C44.6354 69.9051 44.7614 69.8574 44.9113 69.8574C45.0544 69.8574 45.177 69.9051 45.2792 70.0005C45.3882 70.0959 45.4427 70.2185 45.4427 70.3684C45.4427 70.5251 45.3916 70.6511 45.2894 70.7465C45.1872 70.8419 45.0612 70.8896 44.9113 70.8896Z" fill="white" fill-opacity="0.5"/>
<path d="M42.5157 77.1443C42.1206 77.1443 41.8004 77.083 41.5551 76.9604C41.3098 76.8378 41.1293 76.6504 41.0135 76.3983C40.8976 76.1394 40.8397 75.8124 40.8397 75.4173V72.3923H39.9404V71.7587H40.8397V70.1543H41.5653V71.7587H43.0573V72.3923H41.5653V75.3457C41.5653 75.7409 41.6402 76.0372 41.7901 76.2348C41.94 76.4256 42.233 76.521 42.669 76.521H43.0267V77.1443H42.5157Z" fill="white" fill-opacity="0.5"/>
<path d="M35.9252 77.2055C35.6935 77.2055 35.4653 77.1782 35.2405 77.1237C35.0157 77.0624 34.8113 76.9705 34.6273 76.8478C34.4434 76.7184 34.2935 76.5549 34.1777 76.3573C34.0687 76.1529 34.0142 75.9145 34.0142 75.6419C34.0142 75.3354 34.0687 75.0799 34.1777 74.8755C34.2935 74.6711 34.4468 74.5076 34.6375 74.385C34.8283 74.2623 35.0463 74.1772 35.2916 74.1295C35.5368 74.075 35.7957 74.0477 36.0683 74.0477H37.7749C37.7749 73.7139 37.7272 73.4209 37.6318 73.1689C37.5432 72.91 37.3934 72.7056 37.1822 72.5557C36.9778 72.4058 36.7019 72.3309 36.3544 72.3309C36.1704 72.3309 35.9933 72.3513 35.823 72.3922C35.6527 72.4331 35.4994 72.5012 35.3631 72.5966C35.2337 72.6851 35.1315 72.8078 35.0565 72.9645H34.2799C34.3412 72.726 34.4434 72.525 34.5864 72.3615C34.7363 72.198 34.9101 72.0686 35.1076 71.9732C35.3052 71.871 35.513 71.7995 35.731 71.7586C35.949 71.7177 36.1568 71.6973 36.3544 71.6973C37.1174 71.6973 37.6625 71.9255 37.9895 72.382C38.3165 72.8384 38.48 73.4516 38.48 74.2214V77.1442H37.8566L37.826 76.4084C37.6761 76.6128 37.4956 76.7729 37.2844 76.8887C37.08 77.0045 36.862 77.0863 36.6303 77.134C36.3987 77.1817 36.1636 77.2055 35.9252 77.2055ZM35.9763 76.5719C36.3101 76.5719 36.6133 76.5174 36.8858 76.4084C37.1583 76.2926 37.3729 76.1222 37.5296 75.8974C37.6931 75.6726 37.7749 75.3933 37.7749 75.0594V74.6507H36.569C36.3578 74.6507 36.1432 74.6575 35.9252 74.6711C35.7072 74.6779 35.5096 74.712 35.3325 74.7733C35.1553 74.8278 35.0123 74.9198 34.9032 75.0492C34.7942 75.1718 34.7397 75.349 34.7397 75.5806C34.7397 75.8123 34.7976 76.003 34.9135 76.1529C35.0293 76.296 35.1826 76.4016 35.3733 76.4697C35.5641 76.5378 35.7651 76.5719 35.9763 76.5719Z" fill="white" fill-opacity="0.5"/>
<path d="M25.2944 77.1442V71.7586H25.9893L26.0098 72.525C26.1324 72.3138 26.2755 72.1503 26.439 72.0345C26.6093 71.9119 26.7899 71.8267 26.9806 71.779C27.1714 71.7245 27.3622 71.6973 27.5529 71.6973C27.9344 71.6973 28.2478 71.7892 28.4931 71.9732C28.7452 72.1571 28.9257 72.4092 29.0347 72.7294C29.1301 72.5387 29.2527 72.3649 29.4026 72.2082C29.5525 72.0515 29.7364 71.9289 29.9545 71.8403C30.1725 71.745 30.4211 71.6973 30.7005 71.6973C31.0956 71.6973 31.4158 71.7824 31.6611 71.9528C31.9064 72.1163 32.0835 72.3411 32.1925 72.6272C32.3083 72.9134 32.3662 73.237 32.3662 73.5981V77.1442H31.6407V73.9864C31.6407 73.7888 31.6304 73.5947 31.61 73.4039C31.5896 73.2063 31.5419 73.0292 31.4669 72.8725C31.392 72.709 31.2796 72.5795 31.1297 72.4842C30.9866 72.382 30.789 72.3309 30.537 72.3309C30.2917 72.3309 30.0839 72.3888 29.9136 72.5046C29.7501 72.6136 29.6138 72.7635 29.5048 72.9542C29.4026 73.1382 29.3277 73.3426 29.28 73.5674C29.2391 73.7854 29.2187 74 29.2187 74.2112V77.1442H28.4931V74.0579C28.4931 73.874 28.4795 73.6832 28.4522 73.4857C28.4318 73.2813 28.3875 73.0905 28.3194 72.9134C28.2512 72.7362 28.1422 72.5966 27.9923 72.4944C27.8425 72.3854 27.6449 72.3309 27.3996 72.3309C27.0454 72.3309 26.766 72.4297 26.5616 72.6272C26.3641 72.818 26.2244 73.0633 26.1426 73.363C26.0609 73.656 26.02 73.9557 26.02 74.2623V77.1442H25.2944Z" fill="white" fill-opacity="0.5"/>
<path d="M21.0651 77.2055C20.4996 77.2055 20.0261 77.0897 19.6446 76.858C19.2631 76.6196 18.9769 76.2926 18.7862 75.877C18.6022 75.4614 18.5103 74.9879 18.5103 74.4565C18.5103 73.9183 18.6056 73.4448 18.7964 73.036C18.9872 72.6204 19.2733 72.2934 19.6548 72.0549C20.0363 71.8165 20.5098 71.6973 21.0753 71.6973C21.6408 71.6973 22.1109 71.8165 22.4856 72.0549C22.8671 72.2934 23.1498 72.6204 23.3338 73.036C23.5246 73.4448 23.6199 73.9183 23.6199 74.4565C23.6199 74.9879 23.5246 75.4614 23.3338 75.877C23.143 76.2926 22.8569 76.6196 22.4754 76.858C22.1007 77.0897 21.6306 77.2055 21.0651 77.2055ZM21.0651 76.5719C21.4875 76.5719 21.835 76.4799 22.1075 76.296C22.38 76.1052 22.581 75.8497 22.7104 75.5295C22.8399 75.2093 22.9046 74.8516 22.9046 74.4565C22.9046 74.0613 22.8399 73.7037 22.7104 73.3835C22.581 73.0633 22.38 72.8078 22.1075 72.617C21.835 72.4262 21.4875 72.3309 21.0651 72.3309C20.6427 72.3309 20.2952 72.4262 20.0227 72.617C19.7502 72.8078 19.5492 73.0633 19.4198 73.3835C19.2971 73.7037 19.2358 74.0613 19.2358 74.4565C19.2358 74.8516 19.2971 75.2093 19.4198 75.5295C19.5492 75.8497 19.7502 76.1052 20.0227 76.296C20.2952 76.4799 20.6427 76.5719 21.0651 76.5719Z" fill="white" fill-opacity="0.5"/>
<path d="M16.2639 77.2051C15.7052 77.2051 15.3135 77.0552 15.0886 76.7555C14.8706 76.4489 14.7616 76.0197 14.7616 75.4678V72.3918H13.8623V71.7582H14.7616V70.1436H15.4872V71.7582H17.204V72.3918H15.4872V75.3554C15.4872 75.5666 15.5042 75.7642 15.5383 75.9482C15.5792 76.1321 15.6609 76.282 15.7835 76.3978C15.9062 76.5136 16.0935 76.5715 16.3456 76.5715C16.4887 76.5715 16.6215 76.5477 16.7442 76.5C16.8736 76.4523 16.9826 76.3944 17.0712 76.3263L17.3675 76.8577C17.2654 76.9394 17.1529 77.0076 17.0303 77.0621C16.9145 77.1166 16.7919 77.154 16.6624 77.1745C16.5398 77.1949 16.4069 77.2051 16.2639 77.2051Z" fill="white" fill-opacity="0.5"/>
<path d="M10.1394 77.2047C9.38999 77.2047 8.82792 77.0038 8.45321 76.6018C8.08532 76.1998 7.90137 75.6003 7.90137 74.8032V71.7578H8.62694V74.7827C8.62694 75.1438 8.67804 75.4606 8.78023 75.7331C8.88924 75.9988 9.05275 76.2066 9.27076 76.3565C9.49559 76.4996 9.78514 76.5711 10.1394 76.5711C10.5005 76.5711 10.7934 76.4996 11.0183 76.3565C11.2499 76.2135 11.4168 76.0091 11.519 75.7434C11.6212 75.4708 11.6723 75.1506 11.6723 74.7827V71.7578H12.3979V74.8032C12.3979 75.6003 12.2105 76.1998 11.8358 76.6018C11.4611 77.0038 10.8956 77.2047 10.1394 77.2047Z" fill="white" fill-opacity="0.5"/>
<path d="M0.131348 77.144L2.87014 69.9189H3.88185L6.62064 77.144H5.81331L5.22059 75.5498H1.5314L0.938677 77.144H0.131348ZM1.77666 74.8856H4.9651L3.37088 70.6036L1.77666 74.8856Z" fill="white" fill-opacity="0.5"/>
</g>
<g clip-path="url(#clip1_5527_271)">
<path d="M169.98 19.81L173.945 17.1201L178.577 19.9711L174.631 22.6465L169.98 19.81Z" fill="white" fill-opacity="0.5"/>
<path d="M163.111 15.546L166.99 12.8574L171.659 15.7031L167.68 18.4009L163.111 15.546Z" fill="white" fill-opacity="0.5"/>
<path d="M160.072 8.61914L156.791 10.8442L160.632 13.2528L163.956 10.9987L160.072 8.61914Z" fill="white" fill-opacity="0.5"/>
<path d="M152.925 4.24023L156.056 6.15894L153.113 8.15555L149.971 6.24345L152.925 4.24023Z" fill="white" fill-opacity="0.5"/>
<path d="M145.317 0L148.363 1.86852L145.317 3.93512L142.286 2.05472L145.317 0Z" fill="white" fill-opacity="0.5"/>
<path d="M163.25 24.3747L167.105 21.7588L171.217 24.2783L167.233 26.8995L163.25 24.3747Z" fill="white" fill-opacity="0.5"/>
<path d="M160.15 17.4961L156.791 19.774L160.52 22.1654L163.956 19.8308L160.15 17.4961Z" fill="white" fill-opacity="0.5"/>
<path d="M153.24 13.2529L150.126 15.3657L153.24 17.3478L156.402 15.202L153.24 13.2529Z" fill="white" fill-opacity="0.5"/>
<path d="M142.773 11.1259L145.58 9.22168L148.363 10.937L145.567 12.8412L142.773 11.1259Z" fill="white" fill-opacity="0.5"/>
<path d="M135.833 6.43259L137.927 5.01172L139.899 6.19754L137.865 7.72009L135.833 6.43259Z" fill="white" fill-opacity="0.5"/>
<path d="M157.115 28.5206L160.483 26.252L163.955 28.4057L160.535 30.7958L157.115 28.5206Z" fill="white" fill-opacity="0.5"/>
<path d="M153.107 22.4385L150.293 24.4258L153.107 26.1359L155.924 24.2027L153.107 22.4385Z" fill="white" fill-opacity="0.5"/>
<path d="M142.773 20.1537L145.246 18.4014L147.702 20.1537L145.238 21.902L142.773 20.1537Z" fill="white" fill-opacity="0.5"/>
<path d="M135.833 15.6297L137.794 14.2656L139.754 15.6297L137.794 16.9674L135.833 15.6297Z" fill="white" fill-opacity="0.5"/>
<path d="M128.643 11.3089L130.431 10.0967L132.116 11.0316L130.379 12.2782L128.643 11.3089Z" fill="white" fill-opacity="0.5"/>
<path d="M142.773 29.0629L145.385 27.2129L148.087 28.9599L145.43 30.9328L142.773 29.0629Z" fill="white" fill-opacity="0.5"/>
<path d="M135.65 24.4892L137.816 23.0684L139.98 24.4377L137.816 25.9101L135.65 24.4892Z" fill="white" fill-opacity="0.5"/>
<path d="M135.833 33.4843L137.999 32.0635L140.164 33.4328L137.999 34.9052L135.833 33.4843Z" fill="white" fill-opacity="0.5"/>
<path d="M128.674 20.4954L130.247 19.4033L132.004 20.6023L130.47 21.6693L128.674 20.4954Z" fill="white" fill-opacity="0.5"/>
<path d="M129.024 29.1585L130.597 28.0664L132.356 29.2654L130.82 30.3337L129.024 29.1585Z" fill="white" fill-opacity="0.5"/>
<path d="M121.482 16.1232L122.774 15.2266L124.216 16.2103L122.956 17.0872L121.482 16.1232Z" fill="white" fill-opacity="0.5"/>
<path d="M121.747 25.1834L123.038 24.2881L124.48 25.2719L123.22 26.1474L121.747 25.1834Z" fill="white" fill-opacity="0.5"/>
<path d="M114.454 20.7846L115.569 20.0107L116.814 20.8598L115.727 21.6165L114.454 20.7846Z" fill="white" fill-opacity="0.5"/>
<path d="M144.346 36.5439L147.282 38.3438V42.8996L144.346 41.101V36.5439Z" fill="white" fill-opacity="0.5"/>
<path d="M144.346 44.0566L147.282 45.8552V50.4123L144.346 48.6137V44.0566Z" fill="white" fill-opacity="0.5"/>
<path d="M144.346 51.5674L147.282 53.3672V57.9243L144.346 56.1245V51.5674Z" fill="white" fill-opacity="0.5"/>
<path d="M144.346 59.0801L147.282 60.8786V65.4357L144.346 63.6372V59.0801Z" fill="white" fill-opacity="0.5"/>
<path d="M144.346 66.5918L147.282 68.3903V72.9474L144.346 71.1476V66.5918Z" fill="white" fill-opacity="0.5"/>
<path d="M149.695 39.8545L152.632 41.653V46.2101L149.695 44.4116V39.8545Z" fill="white" fill-opacity="0.5"/>
<path d="M149.695 47.3652L152.632 49.1651V53.7222L149.695 51.9223V47.3652Z" fill="white" fill-opacity="0.5"/>
<path d="M149.695 54.8779L152.632 56.6765V61.2336L149.695 59.435V54.8779Z" fill="white" fill-opacity="0.5"/>
<path d="M149.695 62.3906L152.632 64.1892V68.7462L149.695 66.9464V62.3906Z" fill="white" fill-opacity="0.5"/>
<path d="M149.695 69.9014L152.632 71.7012V76.257L149.695 74.4585V69.9014Z" fill="white" fill-opacity="0.5"/>
<path d="M154.403 76.3888L157.339 74.5903V70.0332L154.403 71.8331V76.3888Z" fill="white" fill-opacity="0.5"/>
<path d="M154.403 68.8781L157.339 67.0782V62.5225L154.403 64.321V68.8781Z" fill="white" fill-opacity="0.5"/>
<path d="M154.403 61.3654L157.339 59.5669V55.0098L154.403 56.8083V61.3654Z" fill="white" fill-opacity="0.5"/>
<path d="M154.403 53.855L157.339 52.0551V47.498L154.403 49.2979V53.855Z" fill="white" fill-opacity="0.5"/>
<path d="M154.403 46.3419L157.339 44.5434V39.9863L154.403 41.7849V46.3419Z" fill="white" fill-opacity="0.5"/>
<path d="M159.52 72.9474L162.456 71.1476V66.5918L159.52 68.3903V72.9474Z" fill="white" fill-opacity="0.5"/>
<path d="M159.52 65.4357L162.456 63.6372V59.0801L159.52 60.8786V65.4357Z" fill="white" fill-opacity="0.5"/>
<path d="M159.52 57.9243L162.456 56.1245V51.5674L159.52 53.3672V57.9243Z" fill="white" fill-opacity="0.5"/>
<path d="M159.52 50.4123L162.456 48.6137V44.0566L159.52 45.8552V50.4123Z" fill="white" fill-opacity="0.5"/>
<path d="M159.52 42.8996L162.456 41.101V36.5439L159.52 38.3438V42.8996Z" fill="white" fill-opacity="0.5"/>
<path d="M166.526 67.7875L167.994 66.8882V64.6104L166.526 65.5096V67.7875Z" fill="white" fill-opacity="0.5"/>
<path d="M166.286 60.5318L167.994 59.4846V56.833L166.286 57.8802V60.5318Z" fill="white" fill-opacity="0.5"/>
<path d="M166.005 52.8342L167.994 51.6167V48.5293L166.005 49.7481V52.8342Z" fill="white" fill-opacity="0.5"/>
<path d="M166.001 44.5384L167.994 43.3182V40.2256L166.001 41.4457V44.5384Z" fill="white" fill-opacity="0.5"/>
<path d="M165.621 37.6863L167.994 36.2324V32.5508L165.621 34.0033V37.6863Z" fill="white" fill-opacity="0.5"/>
<path d="M172.654 63.4968L174.122 62.5962V60.3184L172.654 61.2176V63.4968Z" fill="white" fill-opacity="0.5"/>
<path d="M172.414 56.2404L174.122 55.1946V52.543L172.414 53.5888V56.2404Z" fill="white" fill-opacity="0.5"/>
<path d="M172.134 48.8068L174.122 47.588V44.502L172.134 45.7208V48.8068Z" fill="white" fill-opacity="0.5"/>
<path d="M172.129 40.5124L174.122 39.2909V36.1982L172.129 37.4197V40.5124Z" fill="white" fill-opacity="0.5"/>
<path d="M171.749 33.6589L174.122 32.205V28.5234L171.749 29.9773V33.6589Z" fill="white" fill-opacity="0.5"/>
<path d="M178.532 59.3015L180 58.4009V56.123L178.532 57.0223V59.3015Z" fill="white" fill-opacity="0.5"/>
<path d="M178.292 52.1769L180 51.1311V48.4795L178.292 49.5253V52.1769Z" fill="white" fill-opacity="0.5"/>
<path d="M178.012 44.7443L180 43.5255V40.4395L178.012 41.6583V44.7443Z" fill="white" fill-opacity="0.5"/>
<path d="M178.007 36.4489L179.999 35.2274V32.1348L178.007 33.3562V36.4489Z" fill="white" fill-opacity="0.5"/>
<path d="M177.627 29.5954L180 28.1415V24.46L177.627 25.9138V29.5954Z" fill="white" fill-opacity="0.5"/>
<path d="M147.166 32.7822V32.04H151.066V32.7822H149.556V36.9286H148.678V32.7822H147.167H147.166Z" fill="white" fill-opacity="0.5"/>
<path d="M151.815 32.04H152.899L154.35 35.583H154.407L155.858 32.04H156.942V36.9286H156.092V33.5705H156.047L154.696 36.9154H154.061L152.71 33.5639H152.665V36.9299H151.815V32.0414V32.04Z" fill="white" fill-opacity="0.5"/>
</g>
<defs>
<clipPath id="clip0_5527_271">
<rect width="141.513" height="41.0084" fill="white" transform="translate(0 38.1514)"/>
</clipPath>
<clipPath id="clip1_5527_271">
<rect width="65.5462" height="76.3889" fill="white" transform="translate(114.454)"/>
</clipPath>
</defs>
</svg>
